<?xml version="1.0" standalone="no"?>
<!DOCTYPE svg PUBLIC "-//W3C//DTD SVG 1.1//EN" "http://www.w3.org/Graphics/SVG/1.1/DTD/svg11.dtd" >
<svg xmlns="http://www.w3.org/2000/svg">
    <defs>
        <font id="Intro-Light">
            <font-face font-family="Intro-Light"
                       units-per-em="1000"
                       ascent="750"
                       descent="-250"
                       bbox="-51 -272 1299 969"
                    />
            <missing-glyph horiz-adv-x="0" />
            
            <glyph glyph-name="!" unicode="&#x21;" horiz-adv-x="149" d=" M115,-8 Q101,-8 92,0.5 Q83,9 83,23 Q83,54 115,54 Q130,54 139.5,46 Q149,38 149,23 Q149,9 139.5,0.5 Q130,-8 115,-8 M93,128 L91,700 L141,700 L140,128"/> 
            <glyph glyph-name="&quot;" unicode="&#x22;" horiz-adv-x="236" d=" M78,700 L118,700 L113,487 L78,487 M196,700 L236,700 L230,487 L196,487"/> 
            <glyph glyph-name="#" unicode="&#x23;" horiz-adv-x="632" d=" M48,210 L48,247 L178,247 L205,431 L79,431 L79,468 L211,468 L245,699 L288,699 L255,468 L470,468 L505,699 L549,699 L515,468 L632,468 L632,431 L509,431 L482,247 L601,247 L601,210 L477,210 L447,0 L401,0 L432,210 L217,210 L186,0 L140,0 L172,210 M249,432 L221,246 L439,246 L465,432"/> 
            <glyph glyph-name="$" unicode="&#x24;" horiz-adv-x="595" d=" M298,710 L298,777 L343,777 L343,709 Q436,702 502.5,658.5 Q569,615 575,531 L527,531 Q521,594 467,627.5 Q413,661 343,665 L343,377 Q380,372 398,368.5 Q416,365 448,357.5 Q480,350 496.5,342.5 Q513,335 535,321 Q557,307 568,289.5 Q579,272 587,246.5 Q595,221 595,190 Q595,140 572.5,101.5 Q550,63 512,40.5 Q474,18 432,6 Q390,-6 343,-9 L343,-77 L298,-77 L298,-9 Q201,-5 128,44.5 Q55,94 49,183 L98,183 Q104,115 161.5,78.5 Q219,42 298,35 L298,340 Q247,347 210,357 Q173,367 137.5,386.5 Q102,406 83.5,439 Q65,472 65,519 Q65,579 101,623 Q137,667 188,687 Q239,707 298,710 M546,190 Q546,223 535,246.5 Q524,270 508,284 Q492,298 464.5,308 Q437,318 414.5,322.5 Q392,327 357,332 Q353,332 349.5,332.5 Q346,333 343,334 L343,36 Q394,39 437,53.5 Q480,68 513,103.5 Q546,139 546,190 M115,517 Q115,488 126.5,465.5 Q138,443 154.5,429.5 Q171,416 197.5,406.5 Q224,397 246,392.5 Q268,388 298,384 L298,666 Q225,662 170,624.5 Q115,587 115,517"/> 
            <glyph glyph-name="%" unicode="&#x25;" horiz-adv-x="765" d=" M202,-1 L545,698 L594,698 L252,-1 M765,192 Q765,104 747.5,69.5 Q730,35 702,17.5 Q674,0 640,-8.5 Q606,-17 572.5,-8.5 Q539,0 511,18 Q483,36 465.5,70 Q448,104 448,148 Q448,192 465.5,226.5 Q483,261 511,279 Q539,297 572.5,305.5 Q606,314 640,305.5 Q674,297 702,279 Q730,261 765,192 M489,206 Q489,90 525.5,57.5 Q562,25 606.5,25 Q651,25 687.5,57.5 Q724,90 724,148 Q724,206 687.5,239 Q651,272 606.5,272 Q562,272 489,206 M355,593 Q355,505 337.5,470.5 Q320,436 292,418 Q264,400 230.5,391.5 Q197,383 163,391.5 Q129,400 101,417.5 Q73,435 55.5,470 Q38,505 38,549 Q38,593 55.5,627.5 Q73,662 101,680 Q129,698 162.5,706.5 Q196,715 230,706.5 Q264,698 292,680 Q320,662 355,593 M80,607 Q80,491 116.5,458 Q153,425 197,425 Q241,425 277.5,458 Q314,491 314,549 Q314,607 277.5,639.5 Q241,672 197,672 Q153,672 80,607"/> 
            <glyph glyph-name="&amp;" unicode="&#x26;" horiz-adv-x="615" d=" M520,549 L476,549 Q473,610 427.5,638 Q382,666 313,666 Q244,666 196.5,635 Q149,604 149,540 Q149,476 198.5,444.5 Q248,413 333,413 L333,371 Q303,371 288,370 Q108,356 108,205 Q108,129 165,81.5 Q222,34 302,34 Q395,34 444.5,92.5 Q494,151 494,247 L494,409 L615,409 L615,369 L538,369 L538,246 Q538,124 476,57 Q414,-10 302,-10 Q197,-10 127.5,50 Q58,110 58,204 Q58,354 210,394 Q107,426 102,540 Q102,624 164.5,666.5 Q227,709 314,709 Q400,709 458,669.5 Q516,630 520,549"/> 
            <glyph glyph-name="'" unicode="&#x27;" horiz-adv-x="126" d=" M78,700 L126,700 L119,487 L78,487"/> 
            <glyph glyph-name="(" unicode="&#x28;" horiz-adv-x="256" d=" M230,759 L254,724 Q179,659 140,535 Q101,411 102.5,281 Q104,151 144,28 Q184,-95 256,-159 L230,-195 Q146,-124 99,9 Q52,142 51,282 Q50,422 96,555 Q142,688 230,759"/> 
            <glyph glyph-name=")" unicode="&#x29;" horiz-adv-x="239" d=" M34,724 L58,759 Q147,688 193,555 Q239,422 237,282.5 Q235,143 188.5,10 Q142,-123 58,-195 L32,-159 Q104,-95 144,28 Q184,151 185.5,281 Q187,411 148,535 Q109,659 34,724"/> 
            <glyph glyph-name="*" unicode="&#x2A;" horiz-adv-x="350" d=" M350,592 L234,551 L318,447 L289,425 L207,533 L126,424 L97,447 L179,549 L64,591 L75,626 L190,582 L188,706 L227,706 L222,581 L338,627"/> 
            <glyph glyph-name="+" unicode="&#x2B;" horiz-adv-x="404" d=" M64,345 L64,386 L214,386 L214,537 L255,537 L255,386 L404,386 L404,345 L255,345 L255,196 L214,196 L214,345"/> 
            <glyph glyph-name="," unicode="&#x2C;" horiz-adv-x="142" d=" M142,14 Q141,10 139.5,3 Q138,-4 136,-8 L109,-94 L73,-94 L97,-12 Q71,-7 71,20 Q71,35 81,44 Q91,53 107,53 Q119,53 129.5,46 Q140,39 142,27"/> 
            <glyph glyph-name="-" unicode="&#x2D;" horiz-adv-x="384" d=" M71,312 L71,355 L384,355 L384,312"/> 
            <glyph glyph-name="." unicode="&#x2E;" horiz-adv-x="144" d=" M144,49 Q144,7 126,-1.5 Q108,-10 89.5,-1.5 Q71,7 71,28 Q71,48 89.5,57 Q108,66 144,49"/> 
            <glyph glyph-name="/" unicode="&#x2F;" horiz-adv-x="424" d=" M35,1 L373,700 L424,700 L85,1"/> 
            <glyph glyph-name="0" unicode="&#x30;" horiz-adv-x="589" d=" M333,709 Q443,709 516,643 Q589,577 589,468 L589,230 Q589,120 516,54.5 Q443,-11 333,-11 Q221,-11 148,54.5 Q75,120 75,230 L75,468 Q75,577 148.5,643 Q222,709 333,709 M333,35 Q402,35 453.5,66.5 Q505,98 527,155 Q542,194 542,240 L542,458 Q542,504 527,542 Q506,600 454,632 Q402,664 333,664 Q263,664 211,632 Q159,600 138,542 Q123,504 123,458 L123,240 Q123,194 138,155 Q160,98 211.5,66.5 Q263,35 333,35"/> 
            <glyph glyph-name="1" unicode="&#x31;" horiz-adv-x="391" d=" M194,659 L65,659 L65,700 L243,700 L243,43 L391,43 L391,0 L47,0 L47,43 L194,43"/> 
            <glyph glyph-name="2" unicode="&#x32;" horiz-adv-x="481" d=" M263,668 Q107,668 107,525 L64,525 Q64,709 262,710 Q323,711 368.5,688.5 Q414,666 436,627 Q458,588 462.5,541 Q467,494 448.5,443 Q430,392 393,349 Q367,319 320.5,264 Q274,209 262,195 L128,42 L271,45 L481,45 L481,0 L49,0 L49,11 L358,375 Q396,417 411.5,468.5 Q427,520 417.5,564 Q408,608 368,638 Q328,668 263,668"/> 
            <glyph glyph-name="3" unicode="&#x33;" horiz-adv-x="523" d=" M53,180 L99,180 Q110,110 158,72 Q206,34 279,34 Q366,34 418.5,81 Q471,128 471,214 Q471,309 395,357 Q319,405 218,375 L218,393 L438,655 L82,655 L82,700 L523,700 L523,688 L296,420 Q393,426 456,369 Q519,312 519,216 Q519,111 454,50 Q389,-11 280,-11 Q186,-11 125,39 Q64,89 53,180"/> 
            <glyph glyph-name="4" unicode="&#x34;" horiz-adv-x="534" d=" M459,164 L459,0 L412,0 L412,164 L34,164 L34,188 L413,700 L459,700 L459,207 L534,207 L534,164 M415,627 L413,627 L102,208 L413,208 L413,403"/> 
            <glyph glyph-name="5" unicode="&#x35;" horiz-adv-x="529" d=" M128,656 L128,430 Q201,454 288,449 Q337,447 378.5,433 Q420,419 455,393 Q490,367 509.5,322.5 Q529,278 529,219 Q529,120 460.5,55 Q392,-10 287,-10 Q197,-10 136.5,37 Q76,84 62,172 L107,172 Q136,35 289,35 Q365,35 423,83.5 Q481,132 481,219 Q481,313 427.5,357.5 Q374,402 287,407 Q199,412 84,380 L84,700 L488,700 L488,656"/> 
            <glyph glyph-name="6" unicode="&#x36;" horiz-adv-x="542" d=" M316,702 L373,702 L175,413 Q228,443 297,443 Q400,445 471,383 Q542,321 542,218 Q542,113 470,52.5 Q398,-8 291,-8 Q185,-8 113,52.5 Q41,113 41,218 Q41,294 84,355 M291,36 Q377,36 435,85 Q493,134 493,218 Q493,302 434.5,350.5 Q376,399 290,399 Q205,399 148,350.5 Q91,302 91,218 Q91,134 148.5,85 Q206,36 291,36"/> 
            <glyph glyph-name="7" unicode="&#x37;" horiz-adv-x="494" d=" M494,700 L494,692 L159,0 L107,0 L424,654 L42,654 L42,700"/> 
            <glyph glyph-name="8" unicode="&#x38;" horiz-adv-x="563" d=" M404,389 Q475,369 518.5,319.5 Q562,270 563,196 Q563,100 489,42.5 Q415,-15 309,-15 Q204,-15 130,42.5 Q56,100 56,196 Q56,269 100,319.5 Q144,370 213,389 Q162,408 131.5,446.5 Q101,485 101,540 Q101,619 161.5,667 Q222,715 309,715 Q397,715 458.5,668 Q520,621 520,540 Q520,485 488,446.5 Q456,408 404,389 M308,407 Q375,407 423.5,442 Q472,477 472,539 Q472,602 423.5,637.5 Q375,673 309,673 Q244,673 195.5,636.5 Q147,600 147,538 Q147,478 195,442.5 Q243,407 308,407 M309,29 Q391,29 452,74 Q513,119 513,197 Q513,276 452.5,320.5 Q392,365 308,365 Q225,365 165.5,320.5 Q106,276 106,197 Q106,119 167,74 Q228,29 309,29"/> 
            <glyph glyph-name="9" unicode="&#x39;" horiz-adv-x="542" d=" M267,0 L211,0 L409,293 Q360,265 287,265 Q182,265 111.5,324.5 Q41,384 41,488 Q41,595 113,654.5 Q185,714 292,714 Q400,714 471,656 Q542,598 542,489 Q542,413 497,350 M379,670 Q205,670 147.5,622 Q90,574 90,488 Q90,400 148,353.5 Q206,307 293,307 Q378,307 435.5,356 Q493,405 493,489 Q493,577 379,670"/> 
            <glyph glyph-name=":" unicode="&#x3A;" horiz-adv-x="143" d=" M107,-6 Q93,-6 82.5,3.5 Q72,13 72,27 Q72,42 82,51 Q92,60 107,60 Q122,60 132.5,51 Q143,42 143,27 Q143,13 132.5,3.5 Q122,-6 107,-6 M107,338 Q93,338 82.5,347.5 Q72,357 72,371 Q72,386 82,395 Q92,404 107,404 Q122,404 132.5,395 Q143,386 143,371 Q143,357 132.5,347.5 Q122,338 107,338"/> 
            <glyph glyph-name=";" unicode="&#x3B;" horiz-adv-x="144" d=" M109,340 Q95,340 86,348.5 Q77,357 77,371 Q77,385 86,393.5 Q95,402 109,402 Q124,402 133.5,393.5 Q143,385 143,371 Q143,357 133.5,348.5 Q124,340 109,340 M144,15 Q143,11 141.5,5 Q140,-1 139,-5 L116,-73 L84,-73 L103,-9 Q79,-4 79,21 Q79,35 88,43 Q97,51 112,51 Q139,51 144,27"/> 
            <glyph glyph-name="&lt;" unicode="&#x3C;" horiz-adv-x="429" d=" M50,330 L50,367 L429,536 L429,491 L108,348 L429,197 L429,153"/> 
            <glyph glyph-name="=" unicode="&#x3D;" horiz-adv-x="448" d=" M77,219 L77,260 L448,260 L448,219 M77,362 L77,403 L448,403 L448,362"/> 
            <glyph glyph-name="&gt;" unicode="&#x3E;" horiz-adv-x="458" d=" M458,367 L458,330 L79,153 L79,199 L400,349 L79,489 L79,536"/> 
            <glyph glyph-name="?" unicode="&#x3F;" horiz-adv-x="454" d=" M261,129 L212,129 Q211,201 228.5,253 Q246,305 272.5,334.5 Q299,364 326,388 Q353,412 373,443.5 Q393,475 395,516 Q398,587 353.5,621.5 Q309,656 242,656 Q176,656 130,627 Q84,598 84,535 L40,535 Q40,619 97.5,661 Q155,703 243,703 Q331,703 392.5,653 Q454,603 445,510 Q442,466 420.5,430.5 Q399,395 371.5,369 Q344,343 317.5,314 Q291,285 274.5,238 Q258,191 261,129 M250,-12 Q222,-12 212,-3 Q202,6 202,20 Q202,34 211.5,42 Q221,50 236,50 Q251,50 260,42 Q269,34 269,20 Q269,6 250,-12"/> 
            <glyph glyph-name="@" unicode="&#x40;" horiz-adv-x="869" d=" M619,97 L622,123 Q595,64 538,30 Q481,-4 417,-4 Q314,-4 261.5,68.5 Q209,141 219,246 Q228,369 304.5,433.5 Q381,498 487,498 Q541,497 595,476 Q649,455 685,420 L658,115 Q652,83 658,58 Q664,33 690,33 Q728,32 758,71.5 Q788,111 802,159 Q816,207 819,250 Q833,412 742,509.5 Q651,607 487,607 Q322,607 216.5,507.5 Q111,408 97,246 Q89,163 108.5,94.5 Q128,26 169.5,-18.5 Q211,-63 268,-87 Q325,-111 396,-108.5 Q467,-106 542,-78 L539,-110 Q459,-138 382.5,-139 Q306,-140 244.5,-113.5 Q183,-87 138,-39 Q93,9 72.5,83 Q52,157 60,246 Q76,422 193,531.5 Q310,641 490,641 Q668,641 768.5,533.5 Q869,426 853,250 Q850,207 838.5,165.5 Q827,124 807,84.5 Q787,45 753.5,20.5 Q720,-4 677,-4 Q637,-4 626,22 Q615,48 619,97 M622,230 L637,398 Q581,450 479,455 Q396,455 335.5,401.5 Q275,348 267,246 Q258,153 299,96.5 Q340,40 426,40 Q505,40 558.5,95 Q612,150 622,230"/> 
            <glyph glyph-name="A" unicode="&#x41;" horiz-adv-x="691" d=" M544,202 L163,202 L68,0 L15,0 L15,6 L343,702 L366,702 L691,6 L691,0 L639,0 M354,619 L180,246 L527,246"/> 
            <glyph glyph-name="B" unicode="&#x42;" horiz-adv-x="612" d=" M579,516 Q579,463 553,422 Q527,381 475,364 Q540,348 576,302 Q612,256 612,192 Q612,97 551,48.5 Q490,0 390,0 L99,0 L99,700 L355,700 Q456,700 517.5,655 Q579,610 579,516 M353,655 L149,655 L149,381 L357,381 Q530,381 530,517 Q530,655 353,655 M362,338 L149,338 L149,46 L387,46 Q465,46 513,82 Q561,118 561,192 Q561,338 362,338"/> 
            <glyph glyph-name="C" unicode="&#x43;" horiz-adv-x="716" d=" M54,350 Q54,509 153.5,609 Q253,709 406,709 Q510,707 593,654.5 Q676,602 711,505 L662,505 Q627,580 557.5,621 Q488,662 404,662 Q272,664 188.5,575 Q105,486 105,350 Q105,216 188.5,127.5 Q272,39 405,39 Q493,39 564,83.5 Q635,128 667,208 L716,208 Q683,105 597.5,48.5 Q512,-8 405,-8 Q253,-8 153.5,92 Q54,192 54,350"/> 
            <glyph glyph-name="D" unicode="&#x44;" horiz-adv-x="679" d=" M99,700 L340,700 Q493,700 586,599 Q679,498 679,350 Q679,200 586,100 Q493,0 340,0 L99,0 M150,47 L338,47 Q468,47 548.5,133 Q629,219 629,349 Q629,479 549,566 Q469,653 339,653 L150,653"/> 
            <glyph glyph-name="E" unicode="&#x45;" horiz-adv-x="506" d=" M503,700 L503,656 L149,656 L149,384 L488,384 L488,339 L149,339 L149,46 L506,46 L506,0 L99,0 L99,700"/> 
            <glyph glyph-name="F" unicode="&#x46;" horiz-adv-x="508" d=" M482,364 L482,318 L150,318 L150,0 L99,0 L99,700 L508,700 L508,655 L150,655 L150,364"/> 
            <glyph glyph-name="G" unicode="&#x47;" horiz-adv-x="739" d=" M54,352 Q54,508 152,609 Q250,710 400,710 Q511,710 591.5,661 Q672,612 708,511 L657,511 Q591,663 399,663 Q266,661 185,573.5 Q104,486 104,352 Q104,215 184.5,126.5 Q265,38 399,38 Q523,38 602,114 Q681,190 689,315 L413,315 L413,359 L739,359 Q739,254 708,183 Q669,91 588.5,40.5 Q508,-10 399,-10 Q247,-10 150.5,91.5 Q54,193 54,352"/> 
            <glyph glyph-name="H" unicode="&#x48;" horiz-adv-x="622" d=" M622,0 L571,0 L571,344 L149,344 L149,0 L99,0 L99,700 L149,700 L149,391 L571,391 L571,700 L622,700"/> 
            <glyph glyph-name="I" unicode="&#x49;" horiz-adv-x="349" d=" M216,41 L349,41 L349,0 L33,0 L33,41 L166,41 L166,659 L42,659 L42,700 L340,700 L340,659 L216,659"/> 
            <glyph glyph-name="J" unicode="&#x4A;" horiz-adv-x="550" d=" M550,700 L550,236 Q550,123 477.5,56.5 Q405,-10 290,-10 Q176,-10 106,56.5 Q36,123 36,236 L36,286 L85,286 L85,236 Q85,142 141,89.5 Q197,37 290,37 Q384,37 441.5,90.5 Q499,144 499,236 L499,654 L304,654 L304,700"/> 
            <glyph glyph-name="K" unicode="&#x4B;" horiz-adv-x="629" d=" M150,700 L150,365 Q286,365 328,389 Q350,401 370,437.5 Q390,474 397,496 Q404,518 419,567 Q435,620 455,650 Q475,680 514,694 Q553,708 612,699 L612,662 Q542,670 514,645 Q486,620 466,552 Q451,503 442.5,479 Q434,455 414,419 Q394,383 369,363 L629,7 L629,0 L571,0 L325,341 Q288,322 150,322 L150,0 L99,0 L99,700"/> 
            <glyph glyph-name="L" unicode="&#x4C;" horiz-adv-x="498" d=" M150,700 L150,46 L498,46 L498,0 L99,0 L99,700"/> 
            <glyph glyph-name="M" unicode="&#x4D;" horiz-adv-x="724" d=" M412,281 L703,701 L724,701 L724,0 L673,0 L673,575 L417,205 L407,205 L150,575 L150,0 L99,0 L99,701 L120,701"/> 
            <glyph glyph-name="N" unicode="&#x4E;" horiz-adv-x="644" d=" M627,0 L145,591 L150,352 L150,0 L99,0 L99,701 L119,701 L598,112 L593,366 L593,701 L644,701 L644,0"/> 
            <glyph glyph-name="O" unicode="&#x4F;" horiz-adv-x="762" d=" M762,350 Q762,191 663,90 Q564,-11 407,-11 Q253,-11 153.5,89 Q54,189 54,350 Q54,510 154.5,610.5 Q255,711 407,711 Q561,711 661.5,610.5 Q762,510 762,350 M105,488 Q105,212 190.5,124 Q276,36 407,36 Q539,36 625,124 Q711,212 711,350 Q711,488 625.5,575.5 Q540,663 408,663 Q275,663 105,488"/> 
            <glyph glyph-name="P" unicode="&#x50;" horiz-adv-x="613" d=" M149,0 L99,0 L99,701 Q128,701 184,701 Q240,701 285.5,701 Q331,701 370,701 Q476,701 544.5,635 Q613,569 613,468 Q613,367 544.5,302 Q476,237 370,237 L149,237 M149,284 L370,284 Q452,284 507.5,335.5 Q563,387 563,469 Q563,552 508.5,603.5 Q454,655 370,655 L149,655"/> 
            <glyph glyph-name="Q" unicode="&#x51;" horiz-adv-x="762" d=" M749,-4 L749,-12 L701,-12 L639,73 Q542,-9 406,-8 Q254,-8 154,92.5 Q54,193 54,352 Q54,510 153,611 Q252,712 408,712 Q561,712 661.5,611.5 Q762,511 762,352 Q762,201 673,104 M105,352 Q105,213 191,126 Q277,39 408,39 Q540,39 626,126 Q712,213 712,352 Q712,489 626,576 Q540,663 408,663 Q277,663 191,576 Q105,489 105,352"/> 
            <glyph glyph-name="R" unicode="&#x52;" horiz-adv-x="632" d=" M414,273 L632,8 L632,0 L576,0 L362,267 L150,267 L150,0 L99,0 L99,700 L368,700 Q471,700 537,639 Q603,578 603,482 Q603,397 550,341 Q497,285 414,273 M149,311 L368,311 Q447,311 500.5,358 Q554,405 554,483 Q554,560 501,607.5 Q448,655 368,655 L149,655"/> 
            <glyph glyph-name="S" unicode="&#x53;" horiz-adv-x="596" d=" M50,183 L95,183 Q99,131 138,96 Q177,61 226,47.5 Q275,34 327,34 Q381,34 428,49.5 Q475,65 509.5,102 Q544,139 545,191 Q546,216 538.5,236 Q531,256 522,269 Q513,282 491.5,293.5 Q470,305 457,311 Q444,317 412.5,323.5 Q381,330 369,332 Q357,334 321,339 Q282,344 257,348 Q232,352 198.5,360.5 Q165,369 144.5,381 Q124,393 104.5,411 Q85,429 75.5,455.5 Q66,482 66,516 Q66,579 105,625 Q144,671 199,691 Q254,711 316,711 Q423,711 496.5,666 Q570,621 576,528 L529,528 Q526,566 505,594.5 Q484,623 452,638 Q420,653 386,659.5 Q352,666 316,666 Q264,666 220.5,651.5 Q177,637 147,602 Q117,567 117,517 Q117,485 131,461.5 Q145,438 159,425.5 Q173,413 209,403 Q245,393 258,391 Q271,389 315,384 Q325,383 329,382 Q378,375 410,368.5 Q442,362 481,348 Q520,334 542.5,315 Q565,296 580.5,264 Q596,232 595,190 Q593,93 514.5,41.5 Q436,-10 329,-10 Q260,-10 201,8.5 Q142,27 98,72 Q54,117 50,183"/> 
            <glyph glyph-name="T" unicode="&#x54;" horiz-adv-x="528" d=" M248,654 L18,654 L18,700 L528,700 L528,654 L298,654 L298,0 L248,0"/> 
            <glyph glyph-name="U" unicode="&#x55;" horiz-adv-x="615" d=" M472,-9 Q238,-9 165,58 Q92,125 92,240 L92,700 L142,700 L142,241 Q142,146 200.5,92 Q259,38 355,38 Q450,38 508,92 Q566,146 566,241 L566,700 L615,700 L615,240 Q615,125 472,-9"/> 
            <glyph glyph-name="V" unicode="&#x56;" horiz-adv-x="628" d=" M331,90 L332,90 L444,376 L575,700 L628,700 L628,693 L341,-2 L320,-2 L31,693 L31,700 L85,700 L197,423 Q206,397 216,376"/> 
            <glyph glyph-name="W" unicode="&#x57;" horiz-adv-x="903" d=" M460,687 L482,687 L677,100 L678,100 L752,369 L850,700 L903,700 L903,694 L692,-3 L664,-3 L471,575 L280,-3 L254,-3 L40,692 L40,700 L91,700 L176,419 L268,99"/> 
            <glyph glyph-name="X" unicode="&#x58;" horiz-adv-x="596" d=" M304,410 L305,410 L517,700 L569,700 L569,694 L332,369 L596,6 L596,0 L541,0 L306,328 L304,328 L68,0 L12,0 L12,7 L276,369 L39,693 L39,700 L93,700"/> 
            <glyph glyph-name="Y" unicode="&#x59;" horiz-adv-x="595" d=" M311,345 L313,345 L541,700 L595,700 L595,693 L337,291 L337,0 L287,0 L287,291 L28,694 L28,700 L83,700"/> 
            <glyph glyph-name="Z" unicode="&#x5A;" horiz-adv-x="543" d=" M543,700 L543,692 L241,250 L95,43 L368,47 L543,47 L543,0 L18,0 L18,6 L310,436 L464,656 L278,654 L52,654 L52,700"/> 
            <glyph glyph-name="[" unicode="&#x5B;" horiz-adv-x="240" d=" M240,748 L240,708 L134,708 L134,-125 L240,-125 L240,-168 L88,-168 L88,748"/> 
            <glyph glyph-name="\" unicode="&#x5C;" horiz-adv-x="423" d=" M85,700 L423,1 L373,1 L34,700"/> 
            <glyph glyph-name="]" unicode="&#x5D;" horiz-adv-x="194" d=" M42,708 L42,748 L194,748 L194,-168 L42,-168 L42,-125 L148,-125 L148,708"/> 
            <glyph glyph-name="^" unicode="&#x5E;" horiz-adv-x="439" d=" M232,698 L268,698 L439,423 L393,423 L250,652 L111,423 L65,423"/> 
            <glyph glyph-name="_" unicode="&#x5F;" horiz-adv-x="545" d=" M71,-56 L71,-13 L545,-13 L545,-56"/> 
            <glyph glyph-name="`" unicode="&#x60;" horiz-adv-x="232" d=" M232,590 L232,587 L188,587 L104,696 L104,701 L146,721"/> 
            <glyph glyph-name="a" unicode="&#x61;" horiz-adv-x="514" d=" M414,87 Q362,-8 211,-8 Q144,-8 92,32 Q40,72 40,138 Q40,216 94.5,258 Q149,300 227,300 Q326,300 406,258 L406,332 Q406,396 359,423 Q312,450 243,450 Q151,450 88,413 L77,453 Q149,493 249,493 Q336,493 394,454 Q452,415 452,331 L451,111 Q451,108 451,104 Q451,78 452,67 Q453,56 458.5,43.5 Q464,31 477,28 Q490,25 512,28 L514,-5 Q454,-14 433,7 Q412,28 414,87 M406,151 L406,216 Q321,262 233,260 Q174,260 129.5,228 Q85,196 87,140 Q89,88 127,60.5 Q165,33 219,33 Q284,33 337.5,63 Q391,93 406,151"/> 
            <glyph glyph-name="b" unicode="&#x62;" horiz-adv-x="525" d=" M78,32 L78,732 L126,732 L126,432 Q191,479 262.5,488 Q334,497 391.5,471.5 Q449,446 486.5,385 Q524,324 524,240 Q525,164 497.5,110 Q470,56 424,29 Q378,2 319,-6.5 Q260,-15 198.5,-4.5 Q137,6 78,32 M125,382 L125,63 Q188,40 248.5,36.5 Q309,33 360.5,49.5 Q412,66 444,115 Q476,164 476,240 Q474,341 417.5,396 Q361,451 280,446.5 Q199,442 125,382"/> 
            <glyph glyph-name="c" unicode="&#x63;" horiz-adv-x="526" d=" M521,349 L474,349 Q453,397 408,423 Q363,449 309,450 Q225,451 161,395.5 Q97,340 97,243 Q97,147 158.5,91.5 Q220,36 302,36 Q360,36 408,65.5 Q456,95 478,151 L526,151 Q502,75 439.5,34 Q377,-7 300,-7 Q199,-7 124,59.5 Q49,126 49,243 Q49,361 127,428 Q205,495 308,493 Q381,491 439.5,454 Q498,417 521,349"/> 
            <glyph glyph-name="d" unicode="&#x64;" horiz-adv-x="565" d=" M460,87 L460,112 Q414,-7 271,-7 Q167,-7 108.5,65 Q50,137 50,243 Q50,325 89,385.5 Q128,446 187,471 Q246,496 318.5,487 Q391,478 454,431 L454,733 L501,733 L501,87 Q501,53 513.5,41.5 Q526,30 563,35 L565,-2 Q505,-11 482.5,9.5 Q460,30 460,87 M454,220 L454,381 Q381,442 297.5,446.5 Q214,451 156,396 Q98,341 98,243 Q98,156 144.5,96 Q191,36 277,36 Q354,36 403,89 Q452,142 454,220"/> 
            <glyph glyph-name="e" unicode="&#x65;" horiz-adv-x="527" d=" M294,492 Q412,491 469.5,424.5 Q527,358 507,239 L98,239 Q98,138 155.5,86.5 Q213,35 312,33 Q399,34 479,70 L489,29 Q402,-10 313,-10 Q189,-10 116.5,60.5 Q44,131 50,258 Q56,367 122.5,429.5 Q189,492 294,492 M99,280 L467,280 Q475,363 426,407.5 Q377,452 292,452 Q211,452 159,406.5 Q107,361 99,280"/> 
            <glyph glyph-name="f" unicode="&#x66;" horiz-adv-x="403" d=" M138,0 L138,440 L25,440 L25,482 L138,482 L138,569 Q138,631 161,671.5 Q184,712 222.5,726 Q261,740 307,736 Q353,732 403,711 L393,672 Q340,695 295,696.5 Q250,698 218,666.5 Q186,635 186,568 L186,482 L372,482 L372,440 L186,440 L186,0"/> 
            <glyph glyph-name="g" unicode="&#x67;" horiz-adv-x="498" d=" M451,-43 L451,42 Q370,-11 282,-13 Q183,-15 117,51.5 Q51,118 51,242 Q51,363 123,427.5 Q195,492 312,492 Q400,491 498,446 L498,-43 Q498,-154 437,-209.5 Q376,-265 281,-266 Q180,-268 84,-212 L96,-168 Q188,-221 281,-221 Q357,-221 404,-177.5 Q451,-134 451,-43 M451,93 L451,414 Q379,445 309,445 Q212,445 155.5,393.5 Q99,342 99,242 Q99,137 151.5,83.5 Q204,30 285,30 Q373,30 451,93"/> 
            <glyph glyph-name="h" unicode="&#x68;" horiz-adv-x="500" d=" M500,0 L451,0 L451,287 Q451,365 410,408 Q369,451 294,451 Q218,451 173,403.5 Q128,356 128,281 L128,0 L81,0 L81,732 L128,732 L128,404 Q178,494 308,494 Q388,494 444,439 Q500,384 500,287"/> 
            <glyph glyph-name="i" unicode="&#x69;" horiz-adv-x="141" d=" M75,635 Q75,667 85,676.5 Q95,686 109,685 Q122,684 131.5,675 Q141,666 141,651 Q141,635 132,626.5 Q123,618 110,617 Q96,616 75,635 M131,479 L131,0 L84,0 L84,479"/> 
            <glyph glyph-name="j" unicode="&#x6A;" horiz-adv-x="141" d=" M84,480 L132,480 L132,-57 Q132,-170 92,-219 Q52,-268 -51,-249 L-49,-210 Q-6,-218 21.5,-211 Q49,-204 62,-180.5 Q75,-157 79.5,-129.5 Q84,-102 84,-57 M75,635 Q75,667 84.5,676 Q94,685 108,685 Q121,685 131,676 Q141,667 141,651 Q141,636 131.5,627 Q122,618 109,617 Q95,616 75,635"/> 
            <glyph glyph-name="k" unicode="&#x6B;" horiz-adv-x="494" d=" M129,272 L209,272 Q424,272 424,483 L470,483 Q472,297 320,251 L494,7 L494,1 L443,1 L276,237 Q244,231 208,231 L129,231 L129,1 L81,1 L81,731 L129,731"/> 
            <glyph glyph-name="l" unicode="&#x6C;" horiz-adv-x="261" d=" M77,733 L126,733 L126,182 Q126,97 152,63 Q178,29 259,40 L261,-1 Q156,-16 116.5,28 Q77,72 77,181"/> 
            <glyph glyph-name="m" unicode="&#x6D;" horiz-adv-x="816" d=" M816,0 L767,0 L767,295 Q767,361 738,405 Q709,449 643,449 Q572,449 528,400 Q484,351 484,282 L484,0 L437,0 L437,282 Q437,356 406,402.5 Q375,449 308,449 Q233,449 189,403.5 Q145,358 145,283 L145,0 L97,0 L97,353 Q97,408 85.5,426.5 Q74,445 36,439 L34,481 Q142,501 142,401 Q169,446 216.5,470 Q264,494 322,492 Q434,487 466,387 Q513,492 650,492 Q694,492 727.5,474.5 Q761,457 779.5,428 Q798,399 807,365.5 Q816,332 816,295"/> 
            <glyph glyph-name="n" unicode="&#x6E;" horiz-adv-x="512" d=" M512,0 L464,0 L464,293 Q464,364 421,406 Q378,448 307,448 Q235,448 189,403.5 Q143,359 143,285 L143,0 L95,0 L95,357 Q95,416 84,432 Q73,448 34,442 L33,484 Q91,493 115.5,477 Q140,461 140,406 Q201,495 318,493 Q408,493 460,437.5 Q512,382 512,293"/> 
            <glyph glyph-name="o" unicode="&#x6F;" horiz-adv-x="555" d=" M555,242 Q555,182 533.5,133.5 Q512,85 476,55 Q440,25 394.5,9 Q349,-7 302,-7 Q255,-7 209.5,9 Q164,25 128,55 Q92,85 70.5,133.5 Q49,182 49,242 Q49,322 86.5,380 Q124,438 180,464.5 Q236,491 302,491 Q368,491 424,464.5 Q480,438 517.5,380 Q555,322 555,242 M97,242 Q97,186 119.5,141.5 Q142,97 178.5,74.5 Q215,52 258.5,41 Q302,30 345.5,40.5 Q389,51 425.5,74 Q462,97 484.5,141 Q507,185 507,242 Q507,308 476.5,356 Q446,404 400.5,426 Q355,448 302,448 Q249,448 203.5,426 Q158,404 127.5,356 Q97,308 97,242"/> 
            <glyph glyph-name="p" unicode="&#x70;" horiz-adv-x="547" d=" M137,399 L137,385 Q190,494 328,494 Q430,494 488.5,421 Q547,348 547,243 Q547,160 508,99 Q469,38 410.5,13 Q352,-12 279.5,-3 Q207,6 143,54 L143,-249 L96,-249 L96,335 Q96,341 96,351 Q96,361 96,370 Q96,379 96,387 Q96,395 95,402 Q94,409 92.5,415.5 Q91,422 88.5,427 Q86,432 83,436 Q80,440 75.5,443 Q71,446 65,447.5 Q59,449 51,449 Q43,449 34,447 L32,487 Q90,496 113.5,474 Q137,452 137,399 M143,265 L143,104 Q216,43 299,38.5 Q382,34 440,89 Q498,144 498,243 Q498,329 451,389 Q404,449 320,449 Q243,449 194,396 Q145,343 143,265"/> 
            <glyph glyph-name="q" unicode="&#x71;" horiz-adv-x="499" d=" M499,451 L499,-250 L451,-250 L451,52 Q368,-8 280,-8 Q183,-8 117,59.5 Q51,127 51,243 Q49,370 123,432 Q197,494 311,493 Q406,491 499,451 M452,104 L452,420 Q381,451 309,451 Q217,451 157.5,399 Q98,347 99,243 Q100,147 152.5,93 Q205,39 283,39 Q371,39 452,104"/> 
            <glyph glyph-name="r" unicode="&#x72;" horiz-adv-x="414" d=" M144,418 Q189,497 291,492 Q363,490 414,454 L397,412 Q353,445 287,445 Q230,445 188,408 Q146,371 146,312 L146,0 L98,0 L98,371 Q98,393 97,403.5 Q96,414 90,425.5 Q84,437 71,440 Q58,443 36,440 L34,481 Q91,491 117.5,475.5 Q144,460 144,418"/> 
            <glyph glyph-name="s" unicode="&#x73;" horiz-adv-x="464" d=" M45,131 L92,131 Q98,82 145.5,55.5 Q193,29 257,29 Q322,29 369.5,55 Q417,81 417,130 Q417,158 403.5,176.5 Q390,195 367,204 Q344,213 320.5,218 Q297,223 270,226 Q266,226 263.5,226.5 Q261,227 258,227 Q223,231 200,235 Q177,239 147.5,248 Q118,257 100.5,269.5 Q83,282 71,303.5 Q59,325 59,354 Q59,424 115,457.5 Q171,491 254,491 Q335,491 392,458 Q449,425 449,364 L405,364 Q405,406 361,428.5 Q317,451 255,451 Q193,451 146.5,426.5 Q100,402 103,355 Q103,334 115.5,318 Q128,302 142,294 Q156,286 184,280 Q212,274 224.5,272.5 Q237,271 264,269 Q301,264 324,260 Q347,256 377,245.5 Q407,235 423.5,221.5 Q440,208 452,184.5 Q464,161 463,130 Q463,62 403.5,25.5 Q344,-11 256,-11 Q172,-11 112.5,24 Q53,59 45,131"/> 
            <glyph glyph-name="t" unicode="&#x74;" horiz-adv-x="393" d=" M182,629 L182,481 L369,481 L369,441 L182,441 L182,181 Q182,74 234,45 Q286,16 386,55 L393,13 Q134,-75 134,180 L134,441 L24,444 L24,481 L134,481 L138,629"/> 
            <glyph glyph-name="u" unicode="&#x75;" horiz-adv-x="544" d=" M76,482 L124,482 L124,189 Q124,118 167,76 Q210,34 281,34 Q352,33 393,77 Q434,121 434,197 L434,482 L482,482 L482,123 Q482,64 493,48 Q504,32 543,38 L544,-2 Q486,-11 462.5,5 Q439,21 439,76 Q406,27 367.5,8 Q329,-11 270,-11 Q180,-11 128,44.5 Q76,100 76,189"/> 
            <glyph glyph-name="v" unicode="&#x76;" horiz-adv-x="498" d=" M275,-2 L254,-2 L29,477 L29,482 L82,482 L263,79 L447,482 L498,482 L498,477"/> 
            <glyph glyph-name="w" unicode="&#x77;" horiz-adv-x="707" d=" M240,-2 L215,-2 L34,477 L34,482 L85,482 L165,267 L225,89 L227,89 L360,470 L379,470 L512,88 L513,88 L575,267 L655,482 L707,482 L707,477 L525,-2 L499,-2 L369,367"/> 
            <glyph glyph-name="x" unicode="&#x78;" horiz-adv-x="449" d=" M238,220 L236,220 L67,0 L17,0 L17,5 L211,256 L45,477 L45,482 L93,482 L236,289 L238,289 L384,482 L433,482 L433,477 L262,254 L449,5 L449,0 L402,0"/> 
            <glyph glyph-name="y" unicode="&#x79;" horiz-adv-x="508" d=" M508,477 L291,-28 Q288,-36 277,-62.5 Q266,-89 261,-100 Q256,-111 244.5,-135 Q233,-159 226,-169.5 Q219,-180 205.5,-198.5 Q192,-217 180.5,-224 Q169,-231 152.5,-240 Q136,-249 119.5,-249.5 Q103,-250 82.5,-246.5 Q62,-243 39,-233 L49,-190 Q78,-203 102,-203.5 Q126,-204 142,-195.5 Q158,-187 173,-168 Q188,-149 197.5,-130 Q207,-111 218,-83 L251,-6 L26,477 L26,481 L77,481 L275,50 L276,50 L459,481 L508,481"/> 
            <glyph glyph-name="z" unicode="&#x7A;" horiz-adv-x="419" d=" M419,482 L419,473 L109,45 L416,45 L416,0 L26,0 L26,7 L341,440 L50,440 L50,482"/> 
            <glyph glyph-name="{" unicode="&#x7B;" horiz-adv-x="242" d=" M242,757 L242,719 Q190,719 168,699 Q146,679 146,627 L146,427 Q146,325 90,299 Q146,274 146,170 L146,-34 Q146,-91 166.5,-107.5 Q187,-124 242,-124 L242,-165 Q166,-165 133,-138 Q100,-111 100,-35 L100,167 Q100,271 42,280 L42,317 Q100,326 100,431 L100,628 Q100,703 133.5,730 Q167,757 242,757"/> 
            <glyph glyph-name="|" unicode="&#x7C;" horiz-adv-x="135" d=" M91,698 L135,698 L135,-76 L91,-76"/> 
            <glyph glyph-name="}" unicode="&#x7D;" horiz-adv-x="239" d=" M42,719 L42,757 Q117,757 150.5,730 Q184,703 184,628 L184,431 Q184,410 185.5,395.5 Q187,381 191.5,362 Q196,343 208,331.5 Q220,320 239,317 L239,280 Q184,271 184,167 L184,-35 Q184,-111 151,-138 Q118,-165 42,-165 L42,-124 Q94,-125 116,-105.5 Q138,-86 138,-34 L138,170 Q138,274 194,299 Q138,325 138,427 L138,627 Q138,679 116,699 Q94,719 42,719"/> 
            <glyph glyph-name="~" unicode="&#x7E;" horiz-adv-x="541" d=" M103,302 L71,319 Q94,369 136,390.5 Q178,412 225,405 Q272,398 317,368 Q456,273 507,392 Q514,388 524.5,384 Q535,380 541,376 Q517,319 477,297.5 Q437,276 393.5,285 Q350,294 301,327 Q274,345 247,354.5 Q220,364 193,364 Q166,364 142,348.5 Q118,333 103,302"/> 
            <glyph glyph-name="®" unicode="&#xAE;" horiz-adv-x="732" d=" M732,432 Q732,268 703,202 Q674,136 627,95.5 Q580,55 519.5,33 Q459,11 396.5,11 Q334,11 273.5,33 Q213,55 166,95.5 Q119,136 90,202 Q61,268 61,350 Q61,432 90,498 Q119,564 166,604.5 Q213,645 273.5,667 Q334,689 396.5,689 Q459,689 519.5,667 Q580,645 627,604.5 Q674,564 732,432 M450,308 L546,189 L546,185 L509,185 L415,304 L328,304 L328,185 L294,185 L294,513 L423,513 Q472,513 503.5,484.5 Q535,456 535,408 Q535,368 511.5,341 Q488,314 450,308 M328,482 L328,334 L421,334 Q456,334 478.5,354 Q501,374 501,408 Q501,441 478,461.5 Q455,482 421,482 M99,423 Q99,277 124.5,217.5 Q150,158 192,121.5 Q234,85 287.5,65 Q341,45 396.5,45 Q452,45 505.5,65 Q559,85 601,121.5 Q643,158 668.5,217.5 Q694,277 694,350 Q694,423 668.5,482.5 Q643,542 601,578.5 Q559,615 505.5,634.5 Q452,654 396.5,654 Q341,654 287.5,634.5 Q234,615 192,578.5 Q150,542 99,423"/> 
            <glyph glyph-name="¯" unicode="&#xAF;" horiz-adv-x="383" d=" M97,656 L97,697 L383,697 L383,656"/> 
            <glyph glyph-name="°" unicode="&#xB0;" horiz-adv-x="367" d=" M367,559 Q367,518 350,486.5 Q333,455 305.5,438.5 Q278,422 245,414.5 Q212,407 178.5,415 Q145,423 117.5,439.5 Q90,456 73,487.5 Q56,519 56,559 Q56,599 73,630.5 Q90,662 117.5,678.5 Q145,695 178.5,702.5 Q212,710 245,702.5 Q278,695 305.5,678.5 Q333,662 350,630.5 Q367,599 367,559 M94,559 Q94,516 118,487 Q142,458 176.5,451 Q211,444 245.5,451 Q280,458 304,487 Q328,516 328,559 Q328,612 291.5,642 Q255,672 211,672 Q167,672 130.5,642 Q94,612 94,559"/> 
            <glyph glyph-name="±" unicode="&#xB1;" horiz-adv-x="441" d=" M89,345 L89,385 L241,385 L241,537 L281,537 L281,385 L433,385 L433,345 L281,345 L281,184 L241,184 L241,345 M78,54 L78,97 L441,97 L441,54"/> 
            <glyph glyph-name="²" unicode="&#xB2;" horiz-adv-x="334" d=" M334,416 L334,380 L68,380 L68,389 L250,591 Q280,622 286,657.5 Q292,693 269.5,718 Q247,743 201,743 Q120,743 112,669 L78,669 Q84,776 201,776 Q260,776 292.5,742.5 Q325,709 322,661 Q319,613 282,572 L138,416"/> 
            <glyph glyph-name="³" unicode="&#xB3;" horiz-adv-x="329" d=" M49,484 L85,484 Q91,448 117.5,428 Q144,408 184,408 Q232,408 261.5,432.5 Q291,457 291,502 Q291,552 244,575.5 Q197,599 146,584 L146,594 L259,737 L66,737 L66,770 L322,770 L322,763 L205,616 Q257,620 293,585.5 Q329,551 329,502 Q329,445 290,409.5 Q251,374 185,374 Q128,374 91,403 Q54,432 49,484"/> 
            <glyph glyph-name="´" unicode="&#xB4;" horiz-adv-x="205" d=" M77,568 L77,571 L163,702 L205,682 L205,677 L121,568"/> 
            <glyph glyph-name="µ" unicode="&#xB5;" horiz-adv-x="501" d=" M501,0 L454,0 L454,87 Q426,35 389,13 Q352,-9 292,-9 Q231,-9 194,9.5 Q157,28 132,71 L132,-250 L85,-250 L85,483 L132,483 L132,203 Q132,124 172.5,80 Q213,36 291,36 Q365,36 409.5,82.5 Q454,129 454,204 L454,483 L501,483"/> 
            <glyph glyph-name="¶" unicode="&#xB6;" horiz-adv-x="610" d=" M610,-190 L562,-190 L562,655 L322,655 L322,-190 L273,-190 L273,178 Q200,180 145.5,219.5 Q91,259 64.5,316.5 Q38,374 37,441.5 Q36,509 60,566 Q84,623 141.5,661 Q199,699 279,699 L610,699"/> 
            <glyph glyph-name="·" unicode="&#xB7;" horiz-adv-x="142" d=" M121,325 Q91,325 81,334 Q71,343 71,357 Q71,372 81,381.5 Q91,391 106,391 Q121,391 131.5,381.5 Q142,372 142,357 Q142,343 121,325"/> 
            <glyph glyph-name="¸" unicode="&#xB8;" horiz-adv-x="311" d=" M168,-73 L189,10 L227,10 L211,-50 Q258,-50 284.5,-80 Q311,-110 297,-155 Q286,-192 249.5,-209.5 Q213,-227 172,-221.5 Q131,-216 103,-193 L105,-154 Q135,-184 189,-184.5 Q243,-185 259,-146 Q272,-107 239.5,-87.5 Q207,-68 168,-73"/> 
            <glyph glyph-name="¹" unicode="&#xB9;" horiz-adv-x="266" d=" M58,380 L58,413 L142,413 L142,738 L68,738 L68,771 L181,771 L181,413 L266,413 L266,380"/> 
            <glyph glyph-name="º" unicode="&#xBA;" horiz-adv-x="462" d=" M462,592 Q462,472 433,427.5 Q404,383 360.5,363.5 Q317,344 266.5,344 Q216,344 172.5,363.5 Q129,383 100,427.5 Q71,472 71,532 Q71,592 100,636.5 Q129,681 172.5,701 Q216,721 266.5,721 Q317,721 360.5,701 Q404,681 462,592 M118,573 Q118,491 134.5,459.5 Q151,428 177,411.5 Q203,395 235,387.5 Q267,380 299,387.5 Q331,395 357,411.5 Q383,428 399.5,459.5 Q416,491 416,532 Q416,573 399.5,604.5 Q383,636 357,652.5 Q331,669 299,676.5 Q267,684 235,676.5 Q203,669 177,652.5 Q151,636 118,573 M86,215 L86,258 L454,258 L454,215"/> 
            <glyph glyph-name="»" unicode="&#xBB;" horiz-adv-x="388" d=" M329,346 L222,547 L261,559 L388,346 L261,134 L222,147 M175,346 L68,547 L107,559 L234,346 L107,134 L68,147"/> 
            <glyph glyph-name="¼" unicode="&#xBC;" horiz-adv-x="811" d=" M732,123 L732,224 Q732,243 733,281.5 Q734,320 734,339 L733,339 L573,123 M767,89 L767,1 L730,1 L730,89 L515,89 L515,108 L728,392 L767,392 L767,124 L811,124 L811,89 M241,1 L579,700 L625,700 L286,1 M52,317 L52,350 L136,350 L136,675 L61,675 L61,708 L175,708 L175,350 L260,350 L260,317"/> 
            <glyph glyph-name="½" unicode="&#xBD;" horiz-adv-x="832" d=" M239,1 L577,700 L623,700 L284,1 M52,317 L52,350 L136,350 L136,675 L61,675 L61,708 L175,708 L175,350 L260,350 L260,317 M832,36 L832,0 L566,0 L566,9 L748,211 Q778,242 784,277.5 Q790,313 767.5,338 Q745,363 699,363 Q618,363 610,289 L576,289 Q582,396 699,396 Q758,396 790.5,362.5 Q823,329 820,281 Q817,233 780,192 L636,36"/> 
            <glyph glyph-name="¾" unicode="&#xBE;" horiz-adv-x="834" d=" M755,122 L755,224 Q755,243 756,281.5 Q757,320 757,339 L756,339 L591,122 M790,89 L790,1 L753,1 L753,89 L533,89 L533,108 L751,392 L790,392 L790,123 L834,123 L834,89 M264,1 L602,700 L648,700 L309,1 M47,422 L83,422 Q89,386 115.5,366 Q142,346 182,346 Q230,346 259.5,370.5 Q289,395 289,440 Q289,490 242,513.5 Q195,537 144,522 L144,532 L257,675 L64,675 L64,708 L320,708 L320,701 L203,554 Q255,558 291,523.5 Q327,489 327,440 Q327,383 288,347.5 Q249,312 183,312 Q126,312 89,341 Q52,370 47,422"/> 
            <glyph glyph-name="¿" unicode="&#xBF;" horiz-adv-x="442" d=" M221,351 L270,351 Q271,279 253.5,227 Q236,175 209.5,145.5 Q183,116 156,92 Q129,68 109,36.5 Q89,5 87,-36 Q84,-107 128.5,-141.5 Q173,-176 240,-176 Q306,-176 352,-147 Q398,-118 398,-55 L442,-55 Q442,-139 384.5,-181 Q327,-223 239,-223 Q151,-223 89.5,-173 Q28,-123 37,-30 Q40,15 61,50.5 Q82,86 109.5,111.5 Q137,137 163,166 Q189,195 206,241.5 Q223,288 221,351 M232,492 Q260,492 270,483 Q280,474 280,460 Q280,446 270.5,438 Q261,430 246,430 Q231,430 222,438 Q213,446 213,460 Q213,474 232,492"/> 
            <glyph glyph-name="À" unicode="&#xC0;" horiz-adv-x="691" d=" M544,202 L163,202 L68,0 L15,0 L15,6 L343,702 L366,702 L691,6 L691,0 L639,0 M354,619 L180,246 L527,246 M377,764 L377,761 L333,761 L249,870 L249,875 L291,895"/> 
            <glyph glyph-name="Á" unicode="&#xC1;" horiz-adv-x="691" d=" M544,202 L163,202 L68,0 L15,0 L15,6 L343,702 L366,702 L691,6 L691,0 L639,0 M354,619 L180,246 L527,246 M323,759 L323,762 L409,893 L451,873 L451,868 L367,759"/> 
            <glyph glyph-name="Â" unicode="&#xC2;" horiz-adv-x="691" d=" M544,202 L163,202 L68,0 L15,0 L15,6 L343,702 L366,702 L691,6 L691,0 L639,0 M354,619 L180,246 L527,246 M515,748 L463,748 L355,846 L245,748 L193,748 L193,753 L330,877 L379,877 L515,752"/> 
            <glyph glyph-name="Ã" unicode="&#xC3;" horiz-adv-x="691" d=" M544,202 L163,202 L68,0 L15,0 L15,6 L343,702 L366,702 L691,6 L691,0 L639,0 M354,619 L180,246 L527,246 M238,760 Q234,763 222.5,769 Q211,775 207,777 Q234,823 275.5,834 Q317,845 369,815 Q400,793 425.5,796.5 Q451,800 472,835 Q478,832 488,826 Q498,820 500,819 Q476,773 437.5,762 Q399,751 350,780 Q279,824 238,760"/> 
            <glyph glyph-name="Ä" unicode="&#xC4;" horiz-adv-x="691" d=" M544,202 L163,202 L68,0 L15,0 L15,6 L343,702 L366,702 L691,6 L691,0 L639,0 M354,619 L180,246 L527,246 M245,766 Q230,766 220.5,775 Q211,784 211,797 Q211,812 220.5,821 Q230,830 245,830 Q260,830 269.5,821 Q279,812 279,797 Q279,784 269,775 Q259,766 245,766 M464,766 Q449,766 439.5,775 Q430,784 430,797 Q430,812 439.5,821 Q449,830 464,830 Q479,830 488.5,821 Q498,812 498,797 Q498,784 488,775 Q478,766 464,766"/> 
            <glyph glyph-name="Å" unicode="&#xC5;" horiz-adv-x="691" d=" M279,797 Q279,766 302,748 Q325,730 352,730 Q379,730 402,748 Q425,766 425,797 Q425,829 402,846.5 Q379,864 352,864 Q325,864 302,846.5 Q279,829 279,797 M354,615 L181,246 L526,246 M543,202 L164,202 L68,0 L15,0 L15,6 L340,696 Q299,698 270,725.5 Q241,753 241,797 Q241,846 275.5,874 Q310,902 352,902 Q394,902 428.5,874 Q463,846 463,797 Q463,754 435.5,727.5 Q408,701 368,697 L691,6 L691,0 L639,0"/> 
            <glyph glyph-name="Æ" unicode="&#xC6;" horiz-adv-x="764" d=" M181,216 L66,0 L15,0 L15,7 L387,698 L760,698 L760,653 L456,653 L456,385 L746,385 L746,340 L456,340 L456,45 L764,45 L764,0 L411,0 L411,216 M412,650 L200,259 L411,259"/> 
            <glyph glyph-name="Ç" unicode="&#xC7;" horiz-adv-x="716" d=" M54,350 Q54,509 153.5,609 Q253,709 406,709 Q510,707 593,654.5 Q676,602 711,505 L661,505 Q625,579 557,620 Q489,661 405,661 Q272,663 188.5,574.5 Q105,486 105,350 Q105,216 188.5,127.5 Q272,39 405,39 Q493,39 563.5,83.5 Q634,128 666,208 L716,208 Q685,111 607,55.5 Q529,0 429,-6 L416,-61 Q463,-61 489,-91.5 Q515,-122 501,-165 Q490,-202 453.5,-219 Q417,-236 376,-230.5 Q335,-225 307,-202 L309,-164 Q328,-183 360,-191 Q392,-199 422.5,-189.5 Q453,-180 461,-152 Q470,-119 440.5,-103 Q411,-87 372,-91 L391,-7 Q243,-3 148.5,96.5 Q54,196 54,350"/> 
            <glyph glyph-name="È" unicode="&#xC8;" horiz-adv-x="506" d=" M503,700 L503,656 L149,656 L149,384 L488,384 L488,339 L149,339 L149,46 L506,46 L506,0 L99,0 L99,700 M348,772 L348,769 L304,769 L220,878 L220,883 L262,903"/> 
            <glyph glyph-name="É" unicode="&#xC9;" horiz-adv-x="506" d=" M503,700 L503,656 L149,656 L149,384 L488,384 L488,339 L149,339 L149,46 L506,46 L506,0 L99,0 L99,700 M268,766 L268,769 L354,900 L396,880 L396,875 L312,766"/> 
            <glyph glyph-name="Ê" unicode="&#xCA;" horiz-adv-x="506" d=" M503,700 L503,656 L149,656 L149,384 L488,384 L488,339 L149,339 L149,46 L506,46 L506,0 L99,0 L99,700 M461,771 L411,771 L308,867 L203,771 L153,771 L153,776 L284,898 L331,898 L461,775"/> 
            <glyph glyph-name="Ë" unicode="&#xCB;" horiz-adv-x="506" d=" M503,700 L503,656 L149,656 L149,384 L488,384 L488,339 L149,339 L149,46 L506,46 L506,0 L99,0 L99,700 M197,777 Q182,777 172.5,786 Q163,795 163,808 Q163,823 172.5,832 Q182,841 197,841 Q212,841 221.5,832 Q231,823 231,808 Q231,795 221,786 Q211,777 197,777 M416,777 Q401,777 391.5,786 Q382,795 382,808 Q382,823 391.5,832 Q401,841 416,841 Q431,841 440.5,832 Q450,823 450,808 Q450,795 440,786 Q430,777 416,777"/> 
            <glyph glyph-name="Ì" unicode="&#xCC;" horiz-adv-x="349" d=" M216,41 L349,41 L349,0 L33,0 L33,41 L166,41 L166,659 L42,659 L42,700 L340,700 L340,659 L216,659 M223,763 L223,760 L179,760 L95,869 L95,874 L137,894"/> 
            <glyph glyph-name="Í" unicode="&#xCD;" horiz-adv-x="349" d=" M216,41 L349,41 L349,0 L33,0 L33,41 L166,41 L166,659 L42,659 L42,700 L340,700 L340,659 L216,659 M160,761 L160,764 L246,895 L288,875 L288,870 L204,761"/> 
            <glyph glyph-name="Î" unicode="&#xCE;" horiz-adv-x="349" d=" M216,41 L349,41 L349,0 L33,0 L33,41 L166,41 L166,659 L42,659 L42,700 L340,700 L340,659 L216,659 M346,758 L297,758 L193,853 L88,758 L38,758 L38,763 L169,884 L216,884 L346,762"/> 
            <glyph glyph-name="Ï" unicode="&#xCF;" horiz-adv-x="349" d=" M216,41 L349,41 L349,0 L33,0 L33,41 L166,41 L166,659 L42,659 L42,700 L340,700 L340,659 L216,659 M84,763 Q69,763 59.5,772 Q50,781 50,794 Q50,809 59.5,818 Q69,827 84,827 Q99,827 108.5,818 Q118,809 118,794 Q118,781 108,772 Q98,763 84,763 M303,763 Q288,763 278.5,772 Q269,781 269,794 Q269,809 278.5,818 Q288,827 303,827 Q318,827 327.5,818 Q337,809 337,794 Q337,781 327,772 Q317,763 303,763"/> 
            <glyph glyph-name="Ð" unicode="&#xD0;" horiz-adv-x="680" d=" M17,323 L17,365 L100,365 L100,700 L341,700 Q494,700 587,599 Q680,498 680,350 Q680,200 587,100 Q494,0 341,0 L100,0 L100,323 M151,47 L339,47 Q469,47 549.5,133 Q630,219 630,349 Q630,479 550,566 Q470,653 340,653 L151,653 L151,365 L284,365 L284,323 L151,323"/> 
            <glyph glyph-name="Ñ" unicode="&#xD1;" horiz-adv-x="644" d=" M627,0 L145,591 L150,352 L150,0 L99,0 L99,701 L119,701 L598,112 L593,366 L593,701 L644,701 L644,0 M261,765 Q257,768 245.5,774 Q234,780 230,782 Q257,828 298.5,839 Q340,850 392,820 Q423,798 448.5,801.5 Q474,805 495,840 Q501,837 511,831 Q521,825 523,824 Q499,778 460.5,767 Q422,756 373,785 Q302,829 261,765"/> 
            <glyph glyph-name="Ò" unicode="&#xD2;" horiz-adv-x="762" d=" M762,350 Q762,191 663,90 Q564,-11 407,-11 Q253,-11 153.5,89 Q54,189 54,350 Q54,510 154.5,610.5 Q255,711 407,711 Q561,711 661.5,610.5 Q762,510 762,350 M105,488 Q105,212 190.5,124 Q276,36 407,36 Q539,36 625,124 Q711,212 711,350 Q711,488 625.5,575.5 Q540,663 408,663 Q275,663 105,488 M435,778 L435,775 L391,775 L307,884 L307,889 L349,909"/> 
            <glyph glyph-name="Ó" unicode="&#xD3;" horiz-adv-x="762" d=" M762,350 Q762,191 663,90 Q564,-11 407,-11 Q253,-11 153.5,89 Q54,189 54,350 Q54,510 154.5,610.5 Q255,711 407,711 Q561,711 661.5,610.5 Q762,510 762,350 M105,488 Q105,212 190.5,124 Q276,36 407,36 Q539,36 625,124 Q711,212 711,350 Q711,488 625.5,575.5 Q540,663 408,663 Q275,663 105,488 M378,776 L378,779 L464,910 L506,890 L506,885 L422,776"/> 
            <glyph glyph-name="Ô" unicode="&#xD4;" horiz-adv-x="762" d=" M762,350 Q762,191 663,90 Q564,-11 407,-11 Q253,-11 153.5,89 Q54,189 54,350 Q54,510 154.5,610.5 Q255,711 407,711 Q561,711 661.5,610.5 Q762,510 762,350 M105,488 Q105,212 190.5,124 Q276,36 407,36 Q539,36 625,124 Q711,212 711,350 Q711,488 625.5,575.5 Q540,663 408,663 Q275,663 105,488 M571,766 L519,766 L411,864 L301,766 L249,766 L249,771 L386,895 L435,895 L571,770"/> 
            <glyph glyph-name="Õ" unicode="&#xD5;" horiz-adv-x="762" d=" M762,350 Q762,191 663,90 Q564,-11 407,-11 Q253,-11 153.5,89 Q54,189 54,350 Q54,510 154.5,610.5 Q255,711 407,711 Q561,711 661.5,610.5 Q762,510 762,350 M105,488 Q105,212 190.5,124 Q276,36 407,36 Q539,36 625,124 Q711,212 711,350 Q711,488 625.5,575.5 Q540,663 408,663 Q275,663 105,488 M296,795 Q292,798 280.5,804 Q269,810 265,812 Q292,858 333.5,869 Q375,880 427,850 Q458,828 483.5,831.5 Q509,835 530,870 Q536,867 546,861 Q556,855 558,854 Q534,808 495.5,797 Q457,786 408,815 Q337,859 296,795"/> 
            <glyph glyph-name="Ö" unicode="&#xD6;" horiz-adv-x="762" d=" M762,350 Q762,191 663,90 Q564,-11 407,-11 Q253,-11 153.5,89 Q54,189 54,350 Q54,510 154.5,610.5 Q255,711 407,711 Q561,711 661.5,610.5 Q762,510 762,350 M105,488 Q105,212 190.5,124 Q276,36 407,36 Q539,36 625,124 Q711,212 711,350 Q711,488 625.5,575.5 Q540,663 408,663 Q275,663 105,488 M299,792 Q284,792 274.5,801 Q265,810 265,823 Q265,838 274.5,847 Q284,856 299,856 Q314,856 323.5,847 Q333,838 333,823 Q333,810 323,801 Q313,792 299,792 M518,792 Q503,792 493.5,801 Q484,810 484,823 Q484,838 493.5,847 Q503,856 518,856 Q533,856 542.5,847 Q552,838 552,823 Q552,810 542,801 Q532,792 518,792"/> 
            <glyph glyph-name="×" unicode="&#xD7;" horiz-adv-x="361" d=" M74,462 L102,490 L217,376 L331,491 L361,461 L246,346 L358,234 L330,205 L217,318 L104,205 L75,234 L188,347"/> 
            <glyph glyph-name="Ø" unicode="&#xD8;" horiz-adv-x="759" d=" M667,741 L611,646 Q759,547 759,348 Q759,190 658.5,90 Q558,-10 406,-10 Q318,-10 245,27 L195,-56 L144,-56 L144,-51 L206,50 Q136,94 95,170 Q54,246 54,348 Q54,509 154,609 Q254,709 406,709 Q497,709 574,669 L617,745 L667,745 M583,602 L269,71 Q331,38 406,38 Q537,38 622.5,124.5 Q708,211 708,348 Q708,520 583,602 M233,92 L549,626 Q486,659 406,659 Q274,659 189,572.5 Q104,486 104,348 Q104,175 233,92"/> 
            <glyph glyph-name="Ù" unicode="&#xD9;" horiz-adv-x="615" d=" M472,-9 Q238,-9 165,58 Q92,125 92,240 L92,700 L142,700 L142,241 Q142,146 200.5,92 Q259,38 355,38 Q450,38 508,92 Q566,146 566,241 L566,700 L615,700 L615,240 Q615,125 472,-9 M393,767 L393,764 L349,764 L265,873 L265,878 L307,898"/> 
            <glyph glyph-name="Ú" unicode="&#xDA;" horiz-adv-x="615" d=" M472,-9 Q238,-9 165,58 Q92,125 92,240 L92,700 L142,700 L142,241 Q142,146 200.5,92 Q259,38 355,38 Q450,38 508,92 Q566,146 566,241 L566,700 L615,700 L615,240 Q615,125 472,-9 M317,772 L317,775 L403,906 L445,886 L445,881 L361,772"/> 
            <glyph glyph-name="Û" unicode="&#xDB;" horiz-adv-x="615" d=" M472,-9 Q238,-9 165,58 Q92,125 92,240 L92,700 L142,700 L142,241 Q142,146 200.5,92 Q259,38 355,38 Q450,38 508,92 Q566,146 566,241 L566,700 L615,700 L615,240 Q615,125 472,-9 M519,769 L467,769 L359,867 L249,769 L197,769 L197,774 L334,898 L383,898 L519,773"/> 
            <glyph glyph-name="Ü" unicode="&#xDC;" horiz-adv-x="615" d=" M472,-9 Q238,-9 165,58 Q92,125 92,240 L92,700 L142,700 L142,241 Q142,146 200.5,92 Q259,38 355,38 Q450,38 508,92 Q566,146 566,241 L566,700 L615,700 L615,240 Q615,125 472,-9 M244,794 Q229,794 219.5,803 Q210,812 210,825 Q210,840 219.5,849 Q229,858 244,858 Q259,858 268.5,849 Q278,840 278,825 Q278,812 268,803 Q258,794 244,794 M463,794 Q448,794 438.5,803 Q429,812 429,825 Q429,840 438.5,849 Q448,858 463,858 Q478,858 487.5,849 Q497,840 497,825 Q497,812 487,803 Q477,794 463,794"/> 
            <glyph glyph-name="Ý" unicode="&#xDD;" horiz-adv-x="595" d=" M311,345 L313,345 L541,700 L595,700 L595,693 L337,291 L337,0 L287,0 L287,291 L28,694 L28,700 L83,700 M274,761 L274,764 L360,895 L402,875 L402,870 L318,761"/> 
            <glyph glyph-name="Þ" unicode="&#xDE;" horiz-adv-x="612" d=" M148,167 L369,167 Q452,167 507.5,219.5 Q563,272 563,355 Q563,438 508.5,490 Q454,542 369,542 L148,542 M99,0 L99,700 L149,700 L149,586 L369,586 Q476,586 544,521 Q612,456 612,354 Q612,253 543.5,188 Q475,123 369,123 L149,123 L149,0"/> 
            <glyph glyph-name="ß" unicode="&#xDF;" horiz-adv-x="532" d=" M80,1 L80,504 Q80,561 97.5,602.5 Q115,644 142,666 Q169,688 208,698.5 Q247,709 283.5,709.5 Q320,710 364.5,703.5 Q409,697 438.5,690 Q468,683 500,673 L500,655 L319,415 Q403,429 467.5,368 Q532,307 532,211 Q532,80 450.5,24 Q369,-32 241,-1 L241,41 Q348,14 415,59.5 Q482,105 482,211 Q482,309 409.5,353.5 Q337,398 252,369 L252,394 L431,642 Q379,662 327.5,666.5 Q276,671 230.5,659.5 Q185,648 156.5,608.5 Q128,569 128,505 L128,1"/> 
            <glyph glyph-name="à" unicode="&#xE0;" horiz-adv-x="514" d=" M414,87 Q362,-8 211,-8 Q144,-8 92,32 Q40,72 40,138 Q40,216 94.5,258 Q149,300 227,300 Q326,300 406,258 L406,332 Q406,396 359,423 Q312,450 243,450 Q151,450 88,413 L77,453 Q149,493 249,493 Q336,493 394,454 Q452,415 452,331 L451,111 Q451,108 451,104 Q451,78 452,67 Q453,56 458.5,43.5 Q464,31 477,28 Q490,25 512,28 L514,-5 Q454,-14 433,7 Q412,28 414,87 M406,151 L406,216 Q321,262 233,260 Q174,260 129.5,228 Q85,196 87,140 Q89,88 127,60.5 Q165,33 219,33 Q284,33 337.5,63 Q391,93 406,151 M304,594 L304,591 L263,591 L186,691 L186,696 L225,714"/> 
            <glyph glyph-name="á" unicode="&#xE1;" horiz-adv-x="514" d=" M414,87 Q362,-8 211,-8 Q144,-8 92,32 Q40,72 40,138 Q40,216 94.5,258 Q149,300 227,300 Q326,300 406,258 L406,332 Q406,396 359,423 Q312,450 243,450 Q151,450 88,413 L77,453 Q149,493 249,493 Q336,493 394,454 Q452,415 452,331 L451,111 Q451,108 451,104 Q451,78 452,67 Q453,56 458.5,43.5 Q464,31 477,28 Q490,25 512,28 L514,-5 Q454,-14 433,7 Q412,28 414,87 M406,151 L406,216 Q321,262 233,260 Q174,260 129.5,228 Q85,196 87,140 Q89,88 127,60.5 Q165,33 219,33 Q284,33 337.5,63 Q391,93 406,151 M222,588 L222,591 L303,714 L343,695 L343,691 L264,588"/> 
            <glyph glyph-name="â" unicode="&#xE2;" horiz-adv-x="514" d=" M414,87 Q362,-8 211,-8 Q144,-8 92,32 Q40,72 40,138 Q40,216 94.5,258 Q149,300 227,300 Q326,300 406,258 L406,332 Q406,396 359,423 Q312,450 243,450 Q151,450 88,413 L77,453 Q149,493 249,493 Q336,493 394,454 Q452,415 452,331 L451,111 Q451,108 451,104 Q451,78 452,67 Q453,56 458.5,43.5 Q464,31 477,28 Q490,25 512,28 L514,-5 Q454,-14 433,7 Q412,28 414,87 M406,151 L406,216 Q321,262 233,260 Q174,260 129.5,228 Q85,196 87,140 Q89,88 127,60.5 Q165,33 219,33 Q284,33 337.5,63 Q391,93 406,151 M409,587 L363,587 L267,681 L170,587 L124,587 L124,591 L245,710 L289,710 L409,590"/> 
            <glyph glyph-name="ã" unicode="&#xE3;" horiz-adv-x="514" d=" M414,87 Q362,-8 211,-8 Q144,-8 92,32 Q40,72 40,138 Q40,216 94.5,258 Q149,300 227,300 Q326,300 406,258 L406,332 Q406,396 359,423 Q312,450 243,450 Q151,450 88,413 L77,453 Q149,493 249,493 Q336,493 394,454 Q452,415 452,331 L451,111 Q451,108 451,104 Q451,78 452,67 Q453,56 458.5,43.5 Q464,31 477,28 Q490,25 512,28 L514,-5 Q454,-14 433,7 Q412,28 414,87 M406,151 L406,216 Q321,262 233,260 Q174,260 129.5,228 Q85,196 87,140 Q89,88 127,60.5 Q165,33 219,33 Q284,33 337.5,63 Q391,93 406,151 M160,624 Q157,626 146,631.5 Q135,637 131,640 Q156,683 194.5,693 Q233,703 282,675 Q311,655 334.5,658.5 Q358,662 378,694 L404,679 Q382,636 346,625.5 Q310,615 264,643 Q197,682 160,624"/> 
            <glyph glyph-name="ä" unicode="&#xE4;" horiz-adv-x="514" d=" M173,638 Q158,638 148.5,647 Q139,656 139,669 Q139,684 148.5,693 Q158,702 173,702 Q188,702 197.5,693 Q207,684 207,669 Q207,656 197,647 Q187,638 173,638 M363,638 Q348,638 338.5,647 Q329,656 329,669 Q329,684 338.5,693 Q348,702 363,702 Q378,702 387.5,693 Q397,684 397,669 Q397,656 387,647 Q377,638 363,638 M414,87 Q362,-8 211,-8 Q144,-8 92,32 Q40,72 40,138 Q40,216 94.5,258 Q149,300 227,300 Q326,300 406,258 L406,332 Q406,396 359,423 Q312,450 243,450 Q151,450 88,413 L77,453 Q149,493 249,493 Q336,493 394,454 Q452,415 452,331 L451,111 Q451,108 451,104 Q451,78 452,67 Q453,56 458.5,43.5 Q464,31 477,28 Q490,25 512,28 L514,-5 Q454,-14 433,7 Q412,28 414,87 M406,151 L406,216 Q321,262 233,260 Q174,260 129.5,228 Q85,196 87,140 Q89,88 127,60.5 Q165,33 219,33 Q284,33 337.5,63 Q391,93 406,151"/> 
            <glyph glyph-name="å" unicode="&#xE5;" horiz-adv-x="514" d=" M414,87 Q362,-8 211,-8 Q144,-8 92,32 Q40,72 40,138 Q40,216 94.5,258 Q149,300 227,300 Q326,300 406,258 L406,332 Q406,396 359,423 Q312,450 243,450 Q151,450 88,413 L77,453 Q149,493 249,493 Q336,493 394,454 Q452,415 452,331 L451,111 Q451,108 451,104 Q451,78 452,67 Q453,56 458.5,43.5 Q464,31 477,28 Q490,25 512,28 L514,-5 Q454,-14 433,7 Q412,28 414,87 M406,151 L406,216 Q321,262 233,260 Q174,260 129.5,228 Q85,196 87,140 Q89,88 127,60.5 Q165,33 219,33 Q284,33 337.5,63 Q391,93 406,151 M371,653 Q371,613 339.5,589.5 Q308,566 269.5,566 Q231,566 199.5,589 Q168,612 168,653 Q168,694 199.5,717 Q231,740 269.5,740 Q308,740 339.5,717 Q371,694 371,653 M202,653 Q202,618 235,603 Q268,588 301.5,603 Q335,618 335,653 Q335,679 314,694 Q293,709 268.5,709 Q244,709 223,694 Q202,679 202,653"/> 
            <glyph glyph-name="æ" unicode="&#xE6;" horiz-adv-x="820" d=" M205,-9 Q138,-9 90,29.5 Q42,68 42,135 Q40,209 89.5,255.5 Q139,302 210,302 Q309,302 392,256 L392,329 Q392,392 345.5,420.5 Q299,449 231,449 Q153,449 89,411 L78,449 Q152,491 238,491 Q313,491 363,459 Q413,427 421,358 Q470,491 612,491 Q723,491 771.5,421 Q820,351 803,241 L435,241 Q433,143 481.5,87 Q530,31 621,30 Q688,26 771,65 L781,28 Q688,-11 621,-11 Q480,-8 426,101 Q386,41 333.5,16 Q281,-9 205,-9 M436,278 L763,278 Q771,357 729.5,404.5 Q688,452 609,452 Q532,452 488.5,405.5 Q445,359 436,278 M392,216 Q316,261 227,261 Q169,261 128,227.5 Q87,194 89,137 Q89,85 124,58 Q159,31 214,29 Q352,29 404,144 Q394,177 392,216"/> 
            <glyph glyph-name="ç" unicode="&#xE7;" horiz-adv-x="526" d=" M267,-74 L284,-6 Q188,-2 118.5,64.5 Q49,131 49,243 Q49,312 79,366 Q109,420 154.5,449 Q200,478 256.5,488 Q313,498 365,486 Q417,474 460,438.5 Q503,403 521,349 L474,349 Q448,409 384.5,433.5 Q321,458 258,445.5 Q195,433 146,379 Q97,325 97,243 Q97,186 120.5,141.5 Q144,97 180,73 Q216,49 261,40.5 Q306,32 348,41 Q390,50 425.5,78.5 Q461,107 478,151 L526,151 Q503,80 448,40 Q393,0 322,-6 L310,-51 Q357,-51 383.5,-81 Q410,-111 396,-156 Q385,-193 348.5,-210.5 Q312,-228 271,-222.5 Q230,-217 202,-194 L204,-155 Q234,-185 288,-185.5 Q342,-186 358,-147 Q371,-108 338.5,-88.5 Q306,-69 267,-74"/> 
            <glyph glyph-name="è" unicode="&#xE8;" horiz-adv-x="527" d=" M294,492 Q412,491 469.5,424.5 Q527,358 507,239 L98,239 Q98,138 155.5,86.5 Q213,35 312,33 Q399,34 479,70 L489,29 Q402,-10 313,-10 Q189,-10 116.5,60.5 Q44,131 50,258 Q56,367 122.5,429.5 Q189,492 294,492 M99,280 L467,280 Q475,363 426,407.5 Q377,452 292,452 Q211,452 159,406.5 Q107,361 99,280 M322,600 L322,597 L281,597 L202,700 L202,704 L242,723"/> 
            <glyph glyph-name="é" unicode="&#xE9;" horiz-adv-x="527" d=" M294,492 Q412,491 469.5,424.5 Q527,358 507,239 L98,239 Q98,138 155.5,86.5 Q213,35 312,33 Q399,34 479,70 L489,29 Q402,-10 313,-10 Q189,-10 116.5,60.5 Q44,131 50,258 Q56,367 122.5,429.5 Q189,492 294,492 M99,280 L467,280 Q475,363 426,407.5 Q377,452 292,452 Q211,452 159,406.5 Q107,361 99,280 M265,592 L265,594 L344,716 L383,698 L383,693 L305,592"/> 
            <glyph glyph-name="ê" unicode="&#xEA;" horiz-adv-x="527" d=" M294,492 Q412,491 469.5,424.5 Q527,358 507,239 L98,239 Q98,138 155.5,86.5 Q213,35 312,33 Q399,34 479,70 L489,29 Q402,-10 313,-10 Q189,-10 116.5,60.5 Q44,131 50,258 Q56,367 122.5,429.5 Q189,492 294,492 M99,280 L467,280 Q475,363 426,407.5 Q377,452 292,452 Q211,452 159,406.5 Q107,361 99,280 M448,589 L400,589 L300,679 L198,589 L150,589 L150,593 L277,708 L322,708 L448,592"/> 
            <glyph glyph-name="ë" unicode="&#xEB;" horiz-adv-x="527" d=" M294,492 Q412,491 469.5,424.5 Q527,358 507,239 L98,239 Q98,138 155.5,86.5 Q213,35 312,33 Q399,34 479,70 L489,29 Q402,-10 313,-10 Q189,-10 116.5,60.5 Q44,131 50,258 Q56,367 122.5,429.5 Q189,492 294,492 M99,280 L467,280 Q475,363 426,407.5 Q377,452 292,452 Q211,452 159,406.5 Q107,361 99,280 M198,641 Q184,641 175,649.5 Q166,658 166,670 Q166,700 198,700 Q211,700 220,692 Q229,684 229,670 Q229,658 220,649.5 Q211,641 198,641 M400,641 Q386,641 377.5,649.5 Q369,658 369,670 Q369,700 400,700 Q413,700 422.5,692 Q432,684 432,670 Q432,658 422.5,649.5 Q413,641 400,641"/> 
            <glyph glyph-name="ì" unicode="&#xEC;" horiz-adv-x="139" d=" M132,480 L132,0 L84,0 L84,480 M139,595 L139,592 L97,592 L16,697 L16,702 L56,721"/> 
            <glyph glyph-name="í" unicode="&#xED;" horiz-adv-x="203" d=" M132,480 L132,0 L84,0 L84,480 M81,588 L81,591 L163,717 L203,697 L203,693 L123,588"/> 
            <glyph glyph-name="î" unicode="&#xEE;" horiz-adv-x="244" d=" M132,480 L132,0 L84,0 L84,480 M244,578 L200,578 L109,679 L16,578 L-28,578 L-28,583 L88,712 L129,712 L244,582"/> 
            <glyph glyph-name="ï" unicode="&#xEF;" horiz-adv-x="217" d=" M30,638 Q15,638 5.5,647 Q-4,656 -4,669 Q-4,684 5.5,693 Q15,702 30,702 Q45,702 54.5,693 Q64,684 64,669 Q64,656 54,647 Q44,638 30,638 M183,638 Q168,638 158.5,647 Q149,656 149,669 Q149,684 158.5,693 Q168,702 183,702 Q198,702 207.5,693 Q217,684 217,669 Q217,656 207,647 Q197,638 183,638 M132,480 L132,0 L84,0 L84,480"/> 
            <glyph glyph-name="ð" unicode="&#xF0;" horiz-adv-x="548" d=" M50,233 Q50,343 121,405.5 Q192,468 292,470 Q347,470 398.5,448.5 Q450,427 479,385 Q448,473 354,577 L286,529 L270,551 L336,599 Q279,660 224,693 L224,695 L276,695 Q323,666 370,618 L433,667 L448,644 L390,599 Q462,521 505,424 Q548,327 548,233 Q548,224 547,222 Q544,147 506,92.5 Q468,38 413,14 Q358,-10 294.5,-8.5 Q231,-7 176.5,18.5 Q122,44 86,100.5 Q50,157 50,233 M499,233 Q499,287 477,329.5 Q455,372 419.5,393.5 Q384,415 341,425.5 Q298,436 255.5,425.5 Q213,415 177.5,393.5 Q142,372 120,329.5 Q98,287 98,233 Q98,178 120,135.5 Q142,93 177.5,71 Q213,49 255.5,38.5 Q298,28 341,38.5 Q384,49 419.5,71 Q455,93 477,135.5 Q499,178 499,233"/> 
            <glyph glyph-name="ñ" unicode="&#xF1;" horiz-adv-x="512" d=" M512,0 L464,0 L464,293 Q464,364 421,406 Q378,448 307,448 Q235,448 189,403.5 Q143,359 143,285 L143,0 L95,0 L95,357 Q95,416 84,432 Q73,448 34,442 L33,484 Q91,493 115.5,477 Q140,461 140,406 Q201,495 318,493 Q408,493 460,437.5 Q512,382 512,293 M189,626 Q185,629 174,634.5 Q163,640 159,642 Q184,686 224,696 Q264,706 313,678 Q342,658 366,661.5 Q390,665 410,697 Q413,695 422,689.5 Q431,684 436,682 Q414,638 377.5,627.5 Q341,617 295,645 Q227,687 189,626"/> 
            <glyph glyph-name="ò" unicode="&#xF2;" horiz-adv-x="555" d=" M555,242 Q555,182 533.5,133.5 Q512,85 476,55 Q440,25 394.5,9 Q349,-7 302,-7 Q255,-7 209.5,9 Q164,25 128,55 Q92,85 70.5,133.5 Q49,182 49,242 Q49,322 86.5,380 Q124,438 180,464.5 Q236,491 302,491 Q368,491 424,464.5 Q480,438 517.5,380 Q555,322 555,242 M97,242 Q97,186 119.5,141.5 Q142,97 178.5,74.5 Q215,52 258.5,41 Q302,30 345.5,40.5 Q389,51 425.5,74 Q462,97 484.5,141 Q507,185 507,242 Q507,308 476.5,356 Q446,404 400.5,426 Q355,448 302,448 Q249,448 203.5,426 Q158,404 127.5,356 Q97,308 97,242 M346,597 L346,594 L305,594 L227,695 L227,700 L266,718"/> 
            <glyph glyph-name="ó" unicode="&#xF3;" horiz-adv-x="555" d=" M555,242 Q555,182 533.5,133.5 Q512,85 476,55 Q440,25 394.5,9 Q349,-7 302,-7 Q255,-7 209.5,9 Q164,25 128,55 Q92,85 70.5,133.5 Q49,182 49,242 Q49,322 86.5,380 Q124,438 180,464.5 Q236,491 302,491 Q368,491 424,464.5 Q480,438 517.5,380 Q555,322 555,242 M97,242 Q97,186 119.5,141.5 Q142,97 178.5,74.5 Q215,52 258.5,41 Q302,30 345.5,40.5 Q389,51 425.5,74 Q462,97 484.5,141 Q507,185 507,242 Q507,308 476.5,356 Q446,404 400.5,426 Q355,448 302,448 Q249,448 203.5,426 Q158,404 127.5,356 Q97,308 97,242 M275,592 L275,594 L354,716 L393,698 L393,693 L315,592"/> 
            <glyph glyph-name="ô" unicode="&#xF4;" horiz-adv-x="555" d=" M555,242 Q555,182 533.5,133.5 Q512,85 476,55 Q440,25 394.5,9 Q349,-7 302,-7 Q255,-7 209.5,9 Q164,25 128,55 Q92,85 70.5,133.5 Q49,182 49,242 Q49,322 86.5,380 Q124,438 180,464.5 Q236,491 302,491 Q368,491 424,464.5 Q480,438 517.5,380 Q555,322 555,242 M97,242 Q97,186 119.5,141.5 Q142,97 178.5,74.5 Q215,52 258.5,41 Q302,30 345.5,40.5 Q389,51 425.5,74 Q462,97 484.5,141 Q507,185 507,242 Q507,308 476.5,356 Q446,404 400.5,426 Q355,448 302,448 Q249,448 203.5,426 Q158,404 127.5,356 Q97,308 97,242 M454,585 L406,585 L307,679 L207,585 L159,585 L159,589 L284,708 L329,708 L454,588"/> 
            <glyph glyph-name="õ" unicode="&#xF5;" horiz-adv-x="555" d=" M555,242 Q555,182 533.5,133.5 Q512,85 476,55 Q440,25 394.5,9 Q349,-7 302,-7 Q255,-7 209.5,9 Q164,25 128,55 Q92,85 70.5,133.5 Q49,182 49,242 Q49,322 86.5,380 Q124,438 180,464.5 Q236,491 302,491 Q368,491 424,464.5 Q480,438 517.5,380 Q555,322 555,242 M97,242 Q97,186 119.5,141.5 Q142,97 178.5,74.5 Q215,52 258.5,41 Q302,30 345.5,40.5 Q389,51 425.5,74 Q462,97 484.5,141 Q507,185 507,242 Q507,308 476.5,356 Q446,404 400.5,426 Q355,448 302,448 Q249,448 203.5,426 Q158,404 127.5,356 Q97,308 97,242 M203,620 Q199,623 188,628.5 Q177,634 173,636 Q198,680 238,690 Q278,700 327,672 Q356,652 380,655.5 Q404,659 424,691 Q427,689 436.5,683.5 Q446,678 450,676 Q428,632 391.5,621.5 Q355,611 309,639 Q241,681 203,620"/> 
            <glyph glyph-name="ö" unicode="&#xF6;" horiz-adv-x="555" d=" M555,242 Q555,182 533.5,133.5 Q512,85 476,55 Q440,25 394.5,9 Q349,-7 302,-7 Q255,-7 209.5,9 Q164,25 128,55 Q92,85 70.5,133.5 Q49,182 49,242 Q49,322 86.5,380 Q124,438 180,464.5 Q236,491 302,491 Q368,491 424,464.5 Q480,438 517.5,380 Q555,322 555,242 M97,242 Q97,186 119.5,141.5 Q142,97 178.5,74.5 Q215,52 258.5,41 Q302,30 345.5,40.5 Q389,51 425.5,74 Q462,97 484.5,141 Q507,185 507,242 Q507,308 476.5,356 Q446,404 400.5,426 Q355,448 302,448 Q249,448 203.5,426 Q158,404 127.5,356 Q97,308 97,242 M200,634 Q186,634 177,642.5 Q168,651 168,663 Q168,693 200,693 Q213,693 222,685 Q231,677 231,663 Q231,651 222,642.5 Q213,634 200,634 M402,634 Q388,634 379.5,642.5 Q371,651 371,663 Q371,693 402,693 Q415,693 424.5,685 Q434,677 434,663 Q434,651 424.5,642.5 Q415,634 402,634"/> 
            <glyph glyph-name="÷" unicode="&#xF7;" horiz-adv-x="444" d=" M273,179 Q245,179 235.5,187.5 Q226,196 226,209 Q226,223 235.5,231.5 Q245,240 259,240 Q273,240 282.5,231.5 Q292,223 292,209 Q292,196 273,179 M273,477 Q245,477 235.5,485.5 Q226,494 226,507 Q226,521 235.5,529.5 Q245,538 259,538 Q273,538 282.5,529.5 Q292,521 292,507 Q292,494 273,477 M77,337 L77,380 L444,380 L444,337"/> 
            <glyph glyph-name="ø" unicode="&#xF8;" horiz-adv-x="555" d=" M555,243 Q555,183 533.5,134 Q512,85 476.5,56 Q441,27 395.5,9.5 Q350,-8 302.5,-6 Q255,-4 209,9 L176,-56 L135,-56 L175,24 Q49,92 49,243 Q49,304 71.5,353.5 Q94,403 131,432.5 Q168,462 213.5,478 Q259,494 308.5,492 Q358,490 402,472 L439,544 L481,544 L437,457 Q555,389 555,243 M95,243 Q95,119 198,66 L384,433 Q348,447 308,448.5 Q268,450 230.5,437 Q193,424 162.5,400 Q132,376 113.5,335 Q95,294 95,243 M508,243 Q508,362 414,415 L228,49 Q265,39 303.5,37.5 Q342,36 378.5,50.5 Q415,65 444,88.5 Q473,112 490.5,152.5 Q508,193 508,243"/> 
            <glyph glyph-name="ù" unicode="&#xF9;" horiz-adv-x="544" d=" M76,482 L124,482 L124,189 Q124,118 167,76 Q210,34 281,34 Q352,33 393,77 Q434,121 434,197 L434,482 L482,482 L482,123 Q482,64 493,48 Q504,32 543,38 L544,-2 Q486,-11 462.5,5 Q439,21 439,76 Q406,27 367.5,8 Q329,-11 270,-11 Q180,-11 128,44.5 Q76,100 76,189 M320,592 L320,589 L279,589 L199,693 L199,697 L239,716"/> 
            <glyph glyph-name="ú" unicode="&#xFA;" horiz-adv-x="544" d=" M76,482 L124,482 L124,189 Q124,118 167,76 Q210,34 281,34 Q352,33 393,77 Q434,121 434,197 L434,482 L482,482 L482,123 Q482,64 493,48 Q504,32 543,38 L544,-2 Q486,-11 462.5,5 Q439,21 439,76 Q406,27 367.5,8 Q329,-11 270,-11 Q180,-11 128,44.5 Q76,100 76,189 M242,589 L242,592 L323,715 L363,696 L363,692 L284,589"/> 
            <glyph glyph-name="û" unicode="&#xFB;" horiz-adv-x="544" d=" M76,482 L124,482 L124,189 Q124,118 167,76 Q210,34 281,34 Q352,33 393,77 Q434,121 434,197 L434,482 L482,482 L482,123 Q482,64 493,48 Q504,32 543,38 L544,-2 Q486,-11 462.5,5 Q439,21 439,76 Q406,27 367.5,8 Q329,-11 270,-11 Q180,-11 128,44.5 Q76,100 76,189 M442,596 L392,596 L289,690 L184,596 L134,596 L134,601 L265,719 L312,719 L442,600"/> 
            <glyph glyph-name="ü" unicode="&#xFC;" horiz-adv-x="544" d=" M76,482 L124,482 L124,189 Q124,118 167,76 Q210,34 281,34 Q352,33 393,77 Q434,121 434,197 L434,482 L482,482 L482,123 Q482,64 493,48 Q504,32 543,38 L544,-2 Q486,-11 462.5,5 Q439,21 439,76 Q406,27 367.5,8 Q329,-11 270,-11 Q180,-11 128,44.5 Q76,100 76,189 M182,626 Q167,626 158,635 Q149,644 149,656 Q149,688 182,688 Q197,688 206,679.5 Q215,671 215,656 Q215,644 205.5,635 Q196,626 182,626 M396,626 Q381,626 372,635 Q363,644 363,656 Q363,688 396,688 Q409,688 419,679 Q429,670 429,656 Q429,644 419,635 Q409,626 396,626"/> 
            <glyph glyph-name="ý" unicode="&#xFD;" horiz-adv-x="508" d=" M508,477 L291,-28 Q288,-36 277,-62.5 Q266,-89 261,-100 Q256,-111 244.5,-135 Q233,-159 226,-169.5 Q219,-180 205.5,-198.5 Q192,-217 180.5,-224 Q169,-231 152.5,-240 Q136,-249 119.5,-249.5 Q103,-250 82.5,-246.5 Q62,-243 39,-233 L49,-190 Q78,-203 102,-203.5 Q126,-204 142,-195.5 Q158,-187 173,-168 Q188,-149 197.5,-130 Q207,-111 218,-83 L251,-6 L26,477 L26,481 L77,481 L275,50 L276,50 L459,481 L508,481 M232,588 L232,591 L318,722 L360,702 L360,697 L276,588"/> 
            <glyph glyph-name="þ" unicode="&#xFE;" horiz-adv-x="532" d=" M532,245 Q532,162 494,101.5 Q456,41 397.5,15.5 Q339,-10 266.5,-1 Q194,8 129,55 L129,-247 L81,-247 L81,719 L129,719 L129,434 Q194,481 266.5,490 Q339,499 397.5,474.5 Q456,450 494,389.5 Q532,329 532,245 M483,146 Q483,344 425.5,400 Q368,456 284.5,451.5 Q201,447 128,386 L128,104 Q201,43 284.5,38.5 Q368,34 483,146"/> 
            <glyph glyph-name="ÿ" unicode="&#xFF;" horiz-adv-x="508" d=" M508,477 L291,-28 Q288,-36 277,-62.5 Q266,-89 261,-100 Q256,-111 244.5,-135 Q233,-159 226,-169.5 Q219,-180 205.5,-198.5 Q192,-217 180.5,-224 Q169,-231 152.5,-240 Q136,-249 119.5,-249.5 Q103,-250 82.5,-246.5 Q62,-243 39,-233 L49,-190 Q78,-203 102,-203.5 Q126,-204 142,-195.5 Q158,-187 173,-168 Q188,-149 197.5,-130 Q207,-111 218,-83 L251,-6 L26,477 L26,481 L77,481 L275,50 L276,50 L459,481 L508,481 M165,627 Q150,627 140.5,636 Q131,645 131,658 Q131,673 140.5,682 Q150,691 165,691 Q180,691 189.5,682 Q199,673 199,658 Q199,645 189,636 Q179,627 165,627 M384,627 Q369,627 359.5,636 Q350,645 350,658 Q350,673 359.5,682 Q369,691 384,691 Q399,691 408.5,682 Q418,673 418,658 Q418,645 408,636 Q398,627 384,627"/> 
            <glyph glyph-name="Ā" unicode="&#x100;" horiz-adv-x="691" d=" M544,202 L163,202 L68,0 L15,0 L15,6 L343,702 L366,702 L691,6 L691,0 L639,0 M354,619 L180,246 L527,246 M211,770 L211,811 L497,811 L497,770"/> 
            <glyph glyph-name="ā" unicode="&#x101;" horiz-adv-x="514" d=" M414,87 Q362,-8 211,-8 Q144,-8 92,32 Q40,72 40,138 Q40,216 94.5,258 Q149,300 227,300 Q326,300 406,258 L406,332 Q406,396 359,423 Q312,450 243,450 Q151,450 88,413 L77,453 Q149,493 249,493 Q336,493 394,454 Q452,415 452,331 L451,111 Q451,108 451,104 Q451,78 452,67 Q453,56 458.5,43.5 Q464,31 477,28 Q490,25 512,28 L514,-5 Q454,-14 433,7 Q412,28 414,87 M406,151 L406,216 Q321,262 233,260 Q174,260 129.5,228 Q85,196 87,140 Q89,88 127,60.5 Q165,33 219,33 Q284,33 337.5,63 Q391,93 406,151 M120,632 L120,673 L406,673 L406,632"/> 
            <glyph glyph-name="Ă" unicode="&#x102;" horiz-adv-x="691" d=" M544,202 L163,202 L68,0 L15,0 L15,6 L343,702 L366,702 L691,6 L691,0 L639,0 M354,619 L180,246 L527,246 M196,886 L238,886 Q245,854 268.5,833 Q292,812 322.5,807 Q353,802 383.5,807 Q414,812 437.5,833 Q461,854 468,886 L511,886 Q504,839 471.5,808 Q439,777 396.5,769.5 Q354,762 311,769.5 Q268,777 235.5,808.5 Q203,840 196,886"/> 
            <glyph glyph-name="ă" unicode="&#x103;" horiz-adv-x="514" d=" M414,87 Q362,-8 211,-8 Q144,-8 92,32 Q40,72 40,138 Q40,216 94.5,258 Q149,300 227,300 Q326,300 406,258 L406,332 Q406,396 359,423 Q312,450 243,450 Q151,450 88,413 L77,453 Q149,493 249,493 Q336,493 394,454 Q452,415 452,331 L451,111 Q451,108 451,104 Q451,78 452,67 Q453,56 458.5,43.5 Q464,31 477,28 Q490,25 512,28 L514,-5 Q454,-14 433,7 Q412,28 414,87 M406,151 L406,216 Q321,262 233,260 Q174,260 129.5,228 Q85,196 87,140 Q89,88 127,60.5 Q165,33 219,33 Q284,33 337.5,63 Q391,93 406,151 M116,710 L155,710 Q162,673 193.5,652 Q225,631 260,631 Q295,631 326.5,652 Q358,673 365,710 L404,710 Q398,665 369,635.5 Q340,606 301,599 Q262,592 222.5,599.5 Q183,607 153,636.5 Q123,666 116,710"/> 
            <glyph glyph-name="Ą" unicode="&#x104;" horiz-adv-x="753" d=" M355,615 L182,246 L527,246 M544,202 L165,202 L69,0 L16,0 L16,6 Q70,127 344,702 L367,702 L692,6 L692,0 Q657,-17 637,-46 Q617,-75 631,-110 Q663,-168 748,-124 L753,-158 Q724,-174 693.5,-178.5 Q663,-183 633.5,-171.5 Q604,-160 589,-130 Q573,-93 587.5,-57.5 Q602,-22 639,4"/> 
            <glyph glyph-name="ą" unicode="&#x105;" horiz-adv-x="557" d=" M406,150 L406,219 Q321,265 233,263 Q174,263 129.5,230 Q85,197 87,140 Q89,87 127,59.5 Q165,32 219,32 Q284,32 337.5,62 Q391,92 406,150 M414,94 Q387,44 330.5,18 Q274,-8 211,-8 Q143,-8 91.5,31.5 Q40,71 40,137 Q40,213 94.5,256.5 Q149,300 227,300 Q321,300 406,255 L406,332 Q406,396 358,425 Q310,454 243,454 Q151,454 88,417 L77,453 Q149,493 249,493 Q336,493 394,454 Q452,415 452,331 L451,111 Q451,108 451,104 Q451,78 452,67 Q453,56 458.5,43.5 Q464,31 477,28 Q490,25 512,28 L514,-3 Q512,-3 500,-4.5 Q488,-6 483,-6 Q456,-23 442,-50.5 Q428,-78 442,-101 Q472,-151 553,-109 L557,-140 Q529,-153 502,-158 Q475,-163 447.5,-153.5 Q420,-144 407,-115 Q379,-58 450,-1 Q432,4 424,18.5 Q416,33 415,46.5 Q414,60 414,94"/> 
            <glyph glyph-name="Ć" unicode="&#x106;" horiz-adv-x="716" d=" M54,350 Q54,509 153.5,609 Q253,709 406,709 Q510,707 593,654.5 Q676,602 711,505 L662,505 Q627,580 557.5,621 Q488,662 404,662 Q272,664 188.5,575 Q105,486 105,350 Q105,216 188.5,127.5 Q272,39 405,39 Q493,39 564,83.5 Q635,128 667,208 L716,208 Q683,105 597.5,48.5 Q512,-8 405,-8 Q253,-8 153.5,92 Q54,192 54,350 M371,785 L371,788 L457,919 L499,899 L499,894 L415,785"/> 
            <glyph glyph-name="ć" unicode="&#x107;" horiz-adv-x="526" d=" M521,349 L474,349 Q448,409 384.5,433.5 Q321,458 258,445.5 Q195,433 146,379 Q97,325 97,243 Q97,186 120.5,141.5 Q144,97 180,73 Q216,49 261,40.5 Q306,32 348,41 Q390,50 425.5,78.5 Q461,107 478,151 L526,151 Q508,93 464.5,54 Q421,15 368.5,1.5 Q316,-12 259,-3.5 Q202,5 155.5,34 Q109,63 79,117.5 Q49,172 49,243 Q49,312 79,366 Q109,420 154.5,449 Q200,478 256.5,488 Q313,498 365,486 Q417,474 460,438.5 Q503,403 521,349 M259,598 L259,601 L343,720 L383,702 L383,698 L302,598"/> 
            <glyph glyph-name="Ĉ" unicode="&#x108;" horiz-adv-x="716" d=" M54,350 Q54,509 153.5,609 Q253,709 406,709 Q510,707 593,654.5 Q676,602 711,505 L662,505 Q627,580 557.5,621 Q488,662 404,662 Q272,664 188.5,575 Q105,486 105,350 Q105,216 188.5,127.5 Q272,39 405,39 Q493,39 564,83.5 Q635,128 667,208 L716,208 Q683,105 597.5,48.5 Q512,-8 405,-8 Q253,-8 153.5,92 Q54,192 54,350 M565,787 L513,787 L405,885 L295,787 L243,787 L243,792 L380,916 L429,916 L565,791"/> 
            <glyph glyph-name="ĉ" unicode="&#x109;" horiz-adv-x="526" d=" M521,349 L474,349 Q448,409 384.5,433.5 Q321,458 258,445.5 Q195,433 146,379 Q97,325 97,243 Q97,186 120.5,141.5 Q144,97 180,73 Q216,49 261,40.5 Q306,32 348,41 Q390,50 425.5,78.5 Q461,107 478,151 L526,151 Q508,93 464.5,54 Q421,15 368.5,1.5 Q316,-12 259,-3.5 Q202,5 155.5,34 Q109,63 79,117.5 Q49,172 49,243 Q49,312 79,366 Q109,420 154.5,449 Q200,478 256.5,488 Q313,498 365,486 Q417,474 460,438.5 Q503,403 521,349 M454,584 L406,584 L307,678 L207,584 L159,584 L159,589 L284,707 L329,707 L454,588"/> 
            <glyph glyph-name="Ċ" unicode="&#x10A;" horiz-adv-x="716" d=" M54,350 Q54,509 153.5,609 Q253,709 406,709 Q510,707 593,654.5 Q676,602 711,505 L662,505 Q627,580 557.5,621 Q488,662 404,662 Q272,664 188.5,575 Q105,486 105,350 Q105,216 188.5,127.5 Q272,39 405,39 Q493,39 564,83.5 Q635,128 667,208 L716,208 Q683,105 597.5,48.5 Q512,-8 405,-8 Q253,-8 153.5,92 Q54,192 54,350 M419,780 Q389,780 379.5,788.5 Q370,797 370,811 Q370,825 380,834 Q390,843 404,843 Q419,843 428.5,834 Q438,825 438,811 Q438,797 419,780"/> 
            <glyph glyph-name="ċ" unicode="&#x10B;" horiz-adv-x="526" d=" M521,349 L474,349 Q448,409 384.5,433.5 Q321,458 258,445.5 Q195,433 146,379 Q97,325 97,243 Q97,186 120.5,141.5 Q144,97 180,73 Q216,49 261,40.5 Q306,32 348,41 Q390,50 425.5,78.5 Q461,107 478,151 L526,151 Q508,93 464.5,54 Q421,15 368.5,1.5 Q316,-12 259,-3.5 Q202,5 155.5,34 Q109,63 79,117.5 Q49,172 49,243 Q49,312 79,366 Q109,420 154.5,449 Q200,478 256.5,488 Q313,498 365,486 Q417,474 460,438.5 Q503,403 521,349 M320,608 Q294,608 285.5,615.5 Q277,623 277,635 Q277,647 285.5,654.5 Q294,662 307,662 Q320,662 329,654.5 Q338,647 338,635 Q338,623 320,608"/> 
            <glyph glyph-name="Č" unicode="&#x10C;" horiz-adv-x="716" d=" M54,350 Q54,509 153.5,609 Q253,709 406,709 Q510,707 593,654.5 Q676,602 711,505 L662,505 Q627,580 557.5,621 Q488,662 404,662 Q272,664 188.5,575 Q105,486 105,350 Q105,216 188.5,127.5 Q272,39 405,39 Q493,39 564,83.5 Q635,128 667,208 L716,208 Q683,105 597.5,48.5 Q512,-8 405,-8 Q253,-8 153.5,92 Q54,192 54,350 M246,912 L296,912 L402,815 L511,912 L562,912 L562,906 L427,784 L380,784 L246,908"/> 
            <glyph glyph-name="č" unicode="&#x10D;" horiz-adv-x="526" d=" M521,349 L474,349 Q448,409 384.5,433.5 Q321,458 258,445.5 Q195,433 146,379 Q97,325 97,243 Q97,186 120.5,141.5 Q144,97 180,73 Q216,49 261,40.5 Q306,32 348,41 Q390,50 425.5,78.5 Q461,107 478,151 L526,151 Q508,93 464.5,54 Q421,15 368.5,1.5 Q316,-12 259,-3.5 Q202,5 155.5,34 Q109,63 79,117.5 Q49,172 49,243 Q49,312 79,366 Q109,420 154.5,449 Q200,478 256.5,488 Q313,498 365,486 Q417,474 460,438.5 Q503,403 521,349 M143,709 L193,709 L297,615 L403,709 L453,709 L453,704 L321,584 L275,584 L143,706"/> 
            <glyph glyph-name="Ď" unicode="&#x10E;" horiz-adv-x="679" d=" M99,700 L340,700 Q493,700 586,599 Q679,498 679,350 Q679,200 586,100 Q493,0 340,0 L99,0 M150,47 L338,47 Q468,47 548.5,133 Q629,219 629,349 Q629,479 549,566 Q469,653 339,653 L150,653 M159,895 L208,895 L311,802 L416,895 L466,895 L466,890 L335,771 L289,771 L159,892"/> 
            <glyph glyph-name="ď" unicode="&#x10F;" horiz-adv-x="636" d=" M460,87 L460,112 Q414,-7 271,-7 Q167,-7 108.5,65 Q50,137 50,243 Q50,325 89,385.5 Q128,446 187,471 Q246,496 318.5,487 Q391,478 454,431 L454,733 L501,733 L501,87 Q501,53 513.5,41.5 Q526,30 563,35 L565,-2 Q505,-11 482.5,9.5 Q460,30 460,87 M454,220 L454,381 Q381,442 297.5,446.5 Q214,451 156,396 Q98,341 98,243 Q98,156 144.5,96 Q191,36 277,36 Q354,36 403,89 Q452,142 454,220 M634,697 Q633,686 629,676 L608,608 L574,608 L593,672 Q569,678 569,703 Q569,717 578,725 Q587,733 602,733 Q629,733 634,709 Q636,702 634,697"/> 
            <glyph glyph-name="Đ" unicode="&#x110;" horiz-adv-x="680" d=" M17,324 L17,365 L100,365 L100,700 L341,700 Q494,700 587,599 Q680,498 680,350 Q680,200 587,100 Q494,0 341,0 L100,0 L100,324 M151,47 L339,47 Q469,47 549.5,133 Q630,219 630,349 Q630,479 550,566 Q470,653 340,653 L151,653 L151,365 L284,365 L284,324 L151,324"/> 
            <glyph glyph-name="đ" unicode="&#x111;" horiz-adv-x="587" d=" M454,217 L454,379 Q400,424 336.5,437.5 Q273,451 220.5,433 Q168,415 133,364.5 Q98,314 98,240 Q98,153 144.5,93 Q191,33 277,33 Q354,33 403,86 Q452,139 454,217 M460,84 L460,104 Q417,-9 271,-11 Q168,-11 109,62 Q50,135 50,240 Q50,323 89,383 Q128,443 186.5,468 Q245,493 317.5,483.5 Q390,474 454,426 L454,587 L345,587 L345,622 L454,622 L454,730 L501,730 L501,622 L587,622 L587,587 L501,587 L501,147 Q501,138 500.5,126 Q500,114 500,106.5 Q500,99 500,88.5 Q500,78 501,72.5 Q502,67 503.5,59 Q505,51 508,48 Q511,45 516,39.5 Q521,34 527.5,34 Q534,34 543,32 Q552,30 563,34 L565,-6 Q506,-15 483,7 Q460,29 460,84"/> 
            <glyph glyph-name="Ē" unicode="&#x112;" horiz-adv-x="506" d=" M503,700 L503,656 L149,656 L149,384 L488,384 L488,339 L149,339 L149,46 L506,46 L506,0 L99,0 L99,700 M156,783 L156,824 L442,824 L442,783"/> 
            <glyph glyph-name="ē" unicode="&#x113;" horiz-adv-x="527" d=" M294,492 Q412,491 469.5,424.5 Q527,358 507,239 L98,239 Q98,138 155.5,86.5 Q213,35 312,33 Q399,34 479,70 L489,29 Q402,-10 313,-10 Q189,-10 116.5,60.5 Q44,131 50,258 Q56,367 122.5,429.5 Q189,492 294,492 M99,280 L467,280 Q475,363 426,407.5 Q377,452 292,452 Q211,452 159,406.5 Q107,361 99,280 M146,629 L146,670 L432,670 L432,629"/> 
            <glyph glyph-name="Ĕ" unicode="&#x114;" horiz-adv-x="506" d=" M503,700 L503,656 L149,656 L149,384 L488,384 L488,339 L149,339 L149,46 L506,46 L506,0 L99,0 L99,700 M145,894 L186,894 Q195,855 228.5,834 Q262,813 299.5,813 Q337,813 370.5,834.5 Q404,856 413,894 L456,894 Q449,848 417,817 Q385,786 343,779 Q301,772 258.5,779.5 Q216,787 184,818 Q152,849 145,894"/> 
            <glyph glyph-name="ĕ" unicode="&#x115;" horiz-adv-x="527" d=" M294,492 Q412,491 469.5,424.5 Q527,358 507,239 L98,239 Q98,138 155.5,86.5 Q213,35 312,33 Q399,34 479,70 L489,29 Q402,-10 313,-10 Q189,-10 116.5,60.5 Q44,131 50,258 Q56,367 122.5,429.5 Q189,492 294,492 M99,280 L467,280 Q475,363 426,407.5 Q377,452 292,452 Q211,452 159,406.5 Q107,361 99,280 M151,697 L188,697 Q195,662 226,642 Q257,622 291.5,622 Q326,622 357,642 Q388,662 395,697 L434,697 Q427,655 397.5,627 Q368,599 329.5,592 Q291,585 252.5,592 Q214,599 185.5,627 Q157,655 151,697"/> 
            <glyph glyph-name="Ė" unicode="&#x116;" horiz-adv-x="506" d=" M503,700 L503,656 L149,656 L149,384 L488,384 L488,339 L149,339 L149,46 L506,46 L506,0 L99,0 L99,700 M316,767 Q288,767 278.5,775.5 Q269,784 269,797 Q269,811 278.5,819.5 Q288,828 302,828 Q316,828 325.5,819.5 Q335,811 335,797 Q335,784 316,767"/> 
            <glyph glyph-name="ė" unicode="&#x117;" horiz-adv-x="527" d=" M294,492 Q412,491 469.5,424.5 Q527,358 507,239 L98,239 Q98,138 155.5,86.5 Q213,35 312,33 Q399,34 479,70 L489,29 Q402,-10 313,-10 Q189,-10 116.5,60.5 Q44,131 50,258 Q56,367 122.5,429.5 Q189,492 294,492 M99,280 L467,280 Q475,363 426,407.5 Q377,452 292,452 Q211,452 159,406.5 Q107,361 99,280 M311,625 Q283,625 273.5,633 Q264,641 264,653 Q264,666 273.5,673.5 Q283,681 297,681 Q311,681 320.5,673.5 Q330,666 330,653 Q330,641 311,625"/> 
            <glyph glyph-name="Ę" unicode="&#x118;" horiz-adv-x="490" d=" M487,700 L487,655 L149,655 L149,384 L472,384 L472,339 L149,339 L149,47 L490,47 L490,0 L399,0 Q363,-16 348.5,-51 Q334,-86 346,-116 Q362,-150 401.5,-150 Q441,-150 481,-131 L486,-166 Q465,-177 439.5,-182.5 Q414,-188 388,-187.5 Q362,-187 340,-173.5 Q318,-160 308,-134 Q293,-100 308,-60 Q323,-20 360,0 L99,0 L99,700"/> 
            <glyph glyph-name="ę" unicode="&#x119;" horiz-adv-x="523" d=" M98,279 L466,279 Q474,362 425,407.5 Q376,453 292,453 Q211,453 158.5,406.5 Q106,360 98,279 M293,492 Q410,491 466.5,425.5 Q523,360 506,244 L97,244 Q95,146 155.5,89 Q216,32 315,32 Q399,32 474,67 L484,29 Q458,16 417,4 Q389,-14 373.5,-43 Q358,-72 372,-97 Q384,-119 407.5,-126 Q431,-133 453.5,-128 Q476,-123 498,-111 L503,-144 Q473,-159 442,-163.5 Q411,-168 381,-156 Q351,-144 337,-112 Q311,-57 370,-3 Q334,-9 299,-9 Q182,-5 112.5,67.5 Q43,140 49,258 Q55,367 121.5,429.5 Q188,492 293,492"/> 
            <glyph glyph-name="Ě" unicode="&#x11A;" horiz-adv-x="506" d=" M503,700 L503,656 L149,656 L149,384 L488,384 L488,339 L149,339 L149,46 L506,46 L506,0 L99,0 L99,700 M147,898 L197,898 L301,804 L407,898 L457,898 L457,893 L325,773 L279,773 L147,895"/> 
            <glyph glyph-name="ě" unicode="&#x11B;" horiz-adv-x="527" d=" M294,492 Q412,491 469.5,424.5 Q527,358 507,239 L98,239 Q98,138 155.5,86.5 Q213,35 312,33 Q399,34 479,70 L489,29 Q402,-10 313,-10 Q189,-10 116.5,60.5 Q44,131 50,258 Q56,367 122.5,429.5 Q189,492 294,492 M99,280 L467,280 Q475,363 426,407.5 Q377,452 292,452 Q211,452 159,406.5 Q107,361 99,280 M142,702 L189,702 L290,610 L392,702 L441,702 L441,697 L313,580 L268,580 L142,698"/> 
            <glyph glyph-name="Ĝ" unicode="&#x11C;" horiz-adv-x="739" d=" M54,352 Q54,508 152,609 Q250,710 400,710 Q511,710 591.5,661 Q672,612 708,511 L657,511 Q591,663 399,663 Q266,661 185,573.5 Q104,486 104,352 Q104,215 184.5,126.5 Q265,38 399,38 Q523,38 602,114 Q681,190 689,315 L413,315 L413,359 L739,359 Q739,254 708,183 Q669,91 588.5,40.5 Q508,-10 399,-10 Q247,-10 150.5,91.5 Q54,193 54,352 M568,794 L516,794 L408,892 L298,794 L246,794 L246,799 L383,923 L432,923 L568,798"/> 
            <glyph glyph-name="ĝ" unicode="&#x11D;" horiz-adv-x="498" d=" M451,-43 L451,42 Q370,-11 282,-13 Q183,-15 117,51.5 Q51,118 51,242 Q51,363 123,427.5 Q195,492 312,492 Q400,491 498,446 L498,-43 Q498,-113 471.5,-163 Q445,-213 402,-236.5 Q359,-260 305,-265.5 Q251,-271 193.5,-256.5 Q136,-242 84,-212 L96,-168 Q151,-200 212,-213 Q273,-226 327,-217 Q381,-208 416,-163.5 Q451,-119 451,-43 M451,93 L451,414 Q379,445 309,445 Q212,445 155.5,393.5 Q99,342 99,242 Q99,137 151.5,83.5 Q204,30 285,30 Q373,30 451,93 M460,578 L411,578 L310,676 L207,578 L158,578 L158,583 L286,707 L332,707 L460,582"/> 
            <glyph glyph-name="Ğ" unicode="&#x11E;" horiz-adv-x="739" d=" M54,352 Q54,508 152,609 Q250,710 400,710 Q511,710 591.5,661 Q672,612 708,511 L657,511 Q591,663 399,663 Q266,661 185,573.5 Q104,486 104,352 Q104,215 184.5,126.5 Q265,38 399,38 Q523,38 602,114 Q681,190 689,315 L413,315 L413,359 L739,359 Q739,254 708,183 Q669,91 588.5,40.5 Q508,-10 399,-10 Q247,-10 150.5,91.5 Q54,193 54,352 M249,902 L292,902 Q301,862 336,839.5 Q371,817 410,817 Q449,817 484,839.5 Q519,862 528,902 L572,902 Q565,854 532,822 Q499,790 455,782.5 Q411,775 366.5,783 Q322,791 289,823 Q256,855 249,902"/> 
            <glyph glyph-name="ğ" unicode="&#x11F;" horiz-adv-x="498" d=" M451,-43 L451,42 Q370,-11 282,-13 Q183,-15 117,51.5 Q51,118 51,242 Q51,363 123,427.5 Q195,492 312,492 Q400,491 498,446 L498,-43 Q498,-113 471.5,-163 Q445,-213 402,-236.5 Q359,-260 305,-265.5 Q251,-271 193.5,-256.5 Q136,-242 84,-212 L96,-168 Q151,-200 212,-213 Q273,-226 327,-217 Q381,-208 416,-163.5 Q451,-119 451,-43 M451,93 L451,414 Q379,445 309,445 Q212,445 155.5,393.5 Q99,342 99,242 Q99,137 151.5,83.5 Q204,30 285,30 Q373,30 451,93 M157,706 L197,706 Q206,669 238.5,648 Q271,627 307,626.5 Q343,626 375.5,647 Q408,668 415,706 L456,706 Q449,661 418,631 Q387,601 347,594 Q307,587 266.5,594 Q226,601 195,631.5 Q164,662 157,706"/> 
            <glyph glyph-name="Ġ" unicode="&#x120;" horiz-adv-x="739" d=" M54,352 Q54,508 152,609 Q250,710 400,710 Q511,710 591.5,661 Q672,612 708,511 L657,511 Q591,663 399,663 Q266,661 185,573.5 Q104,486 104,352 Q104,215 184.5,126.5 Q265,38 399,38 Q523,38 602,114 Q681,190 689,315 L413,315 L413,359 L739,359 Q739,254 708,183 Q669,91 588.5,40.5 Q508,-10 399,-10 Q247,-10 150.5,91.5 Q54,193 54,352 M410,778 Q396,778 386,786 Q376,794 376,807 Q376,821 385.5,829 Q395,837 410,837 Q444,837 444,807 Q444,794 434.5,786 Q425,778 410,778"/> 
            <glyph glyph-name="ġ" unicode="&#x121;" horiz-adv-x="498" d=" M451,-43 L451,42 Q370,-11 282,-13 Q183,-15 117,51.5 Q51,118 51,242 Q51,363 123,427.5 Q195,492 312,492 Q400,491 498,446 L498,-43 Q498,-113 471.5,-163 Q445,-213 402,-236.5 Q359,-260 305,-265.5 Q251,-271 193.5,-256.5 Q136,-242 84,-212 L96,-168 Q151,-200 212,-213 Q273,-226 327,-217 Q381,-208 416,-163.5 Q451,-119 451,-43 M451,93 L451,414 Q379,445 309,445 Q212,445 155.5,393.5 Q99,342 99,242 Q99,137 151.5,83.5 Q204,30 285,30 Q373,30 451,93 M322,629 Q296,629 287,637.5 Q278,646 278,658 Q278,671 287,679 Q296,687 309,687 Q322,687 331,679 Q340,671 340,658 Q340,646 322,629"/> 
            <glyph glyph-name="Ģ" unicode="&#x122;" horiz-adv-x="739" d=" M446,-144 Q444,-148 443,-155 Q442,-162 440,-166 L413,-252 L377,-252 L401,-170 Q375,-165 375,-138 Q375,-123 385,-114 Q395,-105 411,-105 Q423,-105 433.5,-112 Q444,-119 446,-131 M54,352 Q54,508 152,609 Q250,710 400,710 Q511,710 591.5,661 Q672,612 708,511 L657,511 Q591,663 399,663 Q266,661 185,573.5 Q104,486 104,352 Q104,215 184.5,126.5 Q265,38 399,38 Q523,38 602,114 Q681,190 689,315 L413,315 L413,359 L739,359 Q739,254 708,183 Q669,91 588.5,40.5 Q508,-10 399,-10 Q247,-10 150.5,91.5 Q54,193 54,352"/> 
            <glyph glyph-name="ģ" unicode="&#x123;" horiz-adv-x="498" d=" M451,-43 L451,42 Q370,-11 282,-13 Q183,-15 117,51.5 Q51,118 51,242 Q51,363 123,427.5 Q195,492 312,492 Q400,491 498,446 L498,-43 Q498,-113 471.5,-163 Q445,-213 402,-236.5 Q359,-260 305,-265.5 Q251,-271 193.5,-256.5 Q136,-242 84,-212 L96,-168 Q151,-200 212,-213 Q273,-226 327,-217 Q381,-208 416,-163.5 Q451,-119 451,-43 M451,93 L451,414 Q379,445 309,445 Q212,445 155.5,393.5 Q99,342 99,242 Q99,137 151.5,83.5 Q204,30 285,30 Q373,30 451,93 M276,615 Q278,628 281,635 L302,698 L334,698 L316,638 Q339,633 339,611 Q339,599 329.5,590.5 Q320,582 307,582 Q281,582 276,605 Q275,612 276,615"/> 
            <glyph glyph-name="Ĥ" unicode="&#x124;" horiz-adv-x="622" d=" M622,0 L571,0 L571,344 L149,344 L149,0 L99,0 L99,700 L149,700 L149,391 L571,391 L571,700 L622,700 M530,776 L478,776 L370,874 L260,776 L208,776 L208,781 L345,905 L394,905 L530,780"/> 
            <glyph glyph-name="ĥ" unicode="&#x125;" horiz-adv-x="500" d=" M500,0 L451,0 L451,287 Q451,365 410,408 Q369,451 294,451 Q218,451 173,403.5 Q128,356 128,281 L128,0 L81,0 L81,732 L128,732 L128,404 Q178,494 308,494 Q388,494 444,439 Q500,384 500,287 M453,781 L403,781 L299,878 L193,781 L143,781 L143,786 L275,909 L322,909 L453,785"/> 
            <glyph glyph-name="Ħ" unicode="&#x126;" horiz-adv-x="701" d=" M34,530 L34,566 L105,566 L105,700 L155,700 L155,566 L577,566 L577,700 L628,700 L628,566 L701,566 L701,530 L628,530 L628,0 L577,0 L577,328 L155,328 L155,0 L105,0 L105,530 M155,375 L577,375 L577,530 L155,530"/> 
            <glyph glyph-name="ħ" unicode="&#x127;" horiz-adv-x="500" d=" M500,0 L451,0 L451,287 Q452,365 411,408.5 Q370,452 295,453 Q220,453 174.5,406.5 Q129,360 129,284 L129,0 L81,0 L81,590 L13,590 L13,626 L81,626 L81,732 L129,732 L129,626 L229,626 L229,590 L129,590 L129,403 Q183,494 305,494 Q400,493 450,438 Q500,383 500,287"/> 
            <glyph glyph-name="Ĩ" unicode="&#x128;" horiz-adv-x="349" d=" M216,41 L349,41 L349,0 L33,0 L33,41 L166,41 L166,659 L42,659 L42,700 L340,700 L340,659 L216,659 M79,781 Q75,784 63.5,789.5 Q52,795 48,798 Q75,844 116.5,855 Q158,866 210,836 Q241,814 266.5,817.5 Q292,821 313,856 Q319,853 329,847 Q339,841 341,840 Q317,794 278.5,783 Q240,772 191,801 Q120,845 79,781"/> 
            <glyph glyph-name="ĩ" unicode="&#x129;" horiz-adv-x="235" d=" M132,480 L132,0 L84,0 L84,480 M6,627 Q3,630 -7,636 Q-17,642 -21,644 Q3,689 39,700 Q75,711 121,681 Q148,661 170,664 Q192,667 211,701 Q216,698 224,692.5 Q232,687 235,685 Q214,639 180.5,628.5 Q147,618 104,647 Q42,691 6,627"/> 
            <glyph glyph-name="Ī" unicode="&#x12A;" horiz-adv-x="349" d=" M216,41 L349,41 L349,0 L33,0 L33,41 L166,41 L166,659 L42,659 L42,700 L340,700 L340,659 L216,659 M51,791 L51,832 L337,832 L337,791"/> 
            <glyph glyph-name="ī" unicode="&#x12B;" horiz-adv-x="228" d=" M132,480 L132,0 L84,0 L84,480 M-9,634 L-9,675 L228,675 L228,634"/> 
            <glyph glyph-name="Ĭ" unicode="&#x12C;" horiz-adv-x="349" d=" M216,41 L349,41 L349,0 L33,0 L33,41 L166,41 L166,659 L42,659 L42,700 L340,700 L340,659 L216,659 M40,891 L81,891 Q88,859 111,838 Q134,817 163,811.5 Q192,806 221.5,811.5 Q251,817 274,838 Q297,859 304,891 L346,891 Q339,844 307.5,812 Q276,780 234.5,772.5 Q193,765 151.5,772.5 Q110,780 78.5,812 Q47,844 40,891"/> 
            <glyph glyph-name="ĭ" unicode="&#x12D;" horiz-adv-x="235" d=" M132,480 L132,0 L84,0 L84,480 M-30,701 L5,701 Q15,652 58.5,632.5 Q102,613 145.5,632.5 Q189,652 199,701 L235,701 Q229,657 202,627.5 Q175,598 139,591 Q103,584 66.5,591 Q30,598 3,627.5 Q-24,657 -30,701"/> 
            <glyph glyph-name="Į" unicode="&#x12E;" horiz-adv-x="349" d=" M216,42 L349,42 L349,0 L218,0 Q187,-20 170.5,-53 Q154,-86 169,-114 Q206,-177 305,-129 L310,-165 Q280,-181 245.5,-185.5 Q211,-190 178,-176.5 Q145,-163 131,-130 Q117,-93 130.5,-58.5 Q144,-24 176,0 L33,0 L33,42 L166,42 L166,658 L42,658 L42,700 L340,700 L340,658 L216,658"/> 
            <glyph glyph-name="į" unicode="&#x12F;" horiz-adv-x="211" d=" M75,631 Q75,671 91,679 Q107,687 123,679 Q139,671 139,651 Q139,631 123,622.5 Q107,614 75,631 M131,479 L131,0 Q92,-19 73,-51.5 Q54,-84 70,-115 Q108,-179 206,-130 L211,-165 Q179,-181 144.5,-186.5 Q110,-192 77,-179.5 Q44,-167 30,-134 Q15,-99 32.5,-61 Q50,-23 84,1 L84,479"/> 
            <glyph glyph-name="İ" unicode="&#x130;" horiz-adv-x="349" d=" M216,41 L349,41 L349,0 L33,0 L33,41 L166,41 L166,659 L42,659 L42,700 L340,700 L340,659 L216,659 M191,778 Q175,778 165,786.5 Q155,795 155,808 Q155,823 165,831.5 Q175,840 191,840 Q206,840 216,831.5 Q226,823 226,808 Q226,795 216,786.5 Q206,778 191,778"/> 
            <glyph glyph-name="ı" unicode="&#x131;" horiz-adv-x="132" d=" M132,480 L132,0 L84,0 L84,480"/> 
            <glyph glyph-name="Ĳ" unicode="&#x132;" horiz-adv-x="932" d=" M216,41 L349,41 L349,0 L33,0 L33,41 L166,41 L166,659 L42,659 L42,700 L340,700 L340,659 L216,659 M932,700 L932,236 Q932,123 859.5,56.5 Q787,-10 672,-10 Q558,-10 488,56.5 Q418,123 418,236 L418,286 L467,286 L467,236 Q467,142 523,89.5 Q579,37 672,37 Q766,37 823.5,90.5 Q881,144 881,236 L881,654 L686,654 L686,700"/> 
            <glyph glyph-name="ĳ" unicode="&#x133;" horiz-adv-x="355" d=" M74,630 Q74,672 90.5,681 Q107,690 123.5,681 Q140,672 140,651 Q140,630 123.5,621 Q107,612 74,630 M130,479 L130,0 L83,0 L83,479 M298,480 L346,480 L346,-57 Q346,-170 306,-219 Q266,-268 163,-249 L165,-210 Q208,-218 235.5,-211 Q263,-204 276,-180.5 Q289,-157 293.5,-129.5 Q298,-102 298,-57 M289,630 Q289,672 305.5,681 Q322,690 338.5,681 Q355,672 355,651 Q355,630 338.5,621 Q322,612 289,630"/> 
            <glyph glyph-name="Ĵ" unicode="&#x134;" horiz-adv-x="568" d=" M550,700 L550,236 Q550,123 477.5,56.5 Q405,-10 290,-10 Q176,-10 106,56.5 Q36,123 36,236 L36,286 L85,286 L85,236 Q85,142 141,89.5 Q197,37 290,37 Q384,37 441.5,90.5 Q499,144 499,236 L499,654 L304,654 L304,700 M568,784 L519,784 L418,883 L314,784 L265,784 L265,789 L394,914 L440,914 L568,788"/> 
            <glyph glyph-name="ĵ" unicode="&#x135;" horiz-adv-x="240" d=" M84,480 L132,480 L132,-57 Q132,-170 92,-219 Q52,-268 -51,-249 L-49,-210 Q-6,-218 21.5,-211 Q49,-204 62,-180.5 Q75,-157 79.5,-129.5 Q84,-102 84,-57 M240,573 L195,573 L104,677 L11,573 L-33,573 L-33,578 L83,710 L124,710 L240,577"/> 
            <glyph glyph-name="Ķ" unicode="&#x136;" horiz-adv-x="629" d=" M391,-113 Q390,-117 388,-124 Q386,-131 385,-135 L358,-221 L322,-221 L346,-139 Q320,-134 320,-107 Q320,-92 330,-83 Q340,-74 356,-74 Q368,-74 378.5,-81 Q389,-88 391,-100 M150,700 L150,366 Q288,366 328,389 Q350,401 370,437.5 Q390,474 397,496 Q404,518 419,567 Q435,620 455,650 Q475,680 514,694 Q553,708 612,699 L612,662 Q542,670 514,645 Q486,620 466,552 Q451,503 442.5,479 Q434,455 414,419 Q394,383 369,363 L629,7 L629,0 L571,0 L325,341 Q288,322 150,322 L150,0 L99,0 L99,700"/> 
            <glyph glyph-name="ķ" unicode="&#x137;" horiz-adv-x="494" d=" M318,-121 Q317,-124 315.5,-131 Q314,-138 312,-141 L287,-221 L254,-221 L276,-145 Q252,-140 252,-116 Q252,-102 261.5,-93.5 Q271,-85 285,-85 Q313,-85 318,-109 M129,272 L209,272 Q424,272 424,483 L470,483 Q472,297 320,251 L494,7 L494,1 L443,1 L276,237 Q244,231 208,231 L129,231 L129,1 L81,1 L81,731 L129,731"/> 
            <glyph glyph-name="ĸ" unicode="&#x138;" horiz-adv-x="491" d=" M126,254 L206,254 Q310,254 363.5,307 Q417,360 421,483 L466,483 Q466,282 317,235 L491,6 L491,0 L440,0 L273,221 Q242,215 205,215 L126,215 L126,0 L78,0 L78,482 L126,482"/> 
            <glyph glyph-name="Ĺ" unicode="&#x139;" horiz-adv-x="498" d=" M150,700 L150,46 L498,46 L498,0 L99,0 L99,700 M105,777 L105,780 L191,911 L233,891 L233,886 L149,777"/> 
            <glyph glyph-name="ĺ" unicode="&#x13A;" horiz-adv-x="261" d=" M77,733 L126,733 L126,182 Q126,97 152,63 Q178,29 259,40 L261,-1 Q156,-16 116.5,28 Q77,72 77,181 M80,796 L80,799 L160,920 L199,901 L199,896 L121,796"/> 
            <glyph glyph-name="Ļ" unicode="&#x13B;" horiz-adv-x="498" d=" M337,-144 Q336,-148 334.5,-155 Q333,-162 331,-166 L304,-252 L268,-252 L292,-170 Q266,-165 266,-138 Q266,-123 276,-114 Q286,-105 302,-105 Q314,-105 324.5,-112 Q335,-119 337,-131 M150,700 L150,46 L498,46 L498,0 L99,0 L99,700"/> 
            <glyph glyph-name="ļ" unicode="&#x13C;" horiz-adv-x="261" d=" M210,-144 Q208,-148 207,-155 Q206,-162 204,-166 L177,-252 L141,-252 L165,-170 Q139,-165 139,-138 Q139,-123 149,-114 Q159,-105 175,-105 Q187,-105 197.5,-112 Q208,-119 210,-131 M77,733 L126,733 L126,182 Q126,97 152,63 Q178,29 259,40 L261,-1 Q156,-16 116.5,28 Q77,72 77,181"/> 
            <glyph glyph-name="Ľ" unicode="&#x13D;" horiz-adv-x="498" d=" M150,700 L150,46 L498,46 L498,0 L99,0 L99,700 M418,661 Q418,650 414,641 L394,576 L361,576 L379,637 Q356,644 356,666 Q356,680 365.5,687.5 Q375,695 388,695 Q416,695 418,672 Q419,665 418,661"/> 
            <glyph glyph-name="ľ" unicode="&#x13E;" horiz-adv-x="278" d=" M77,733 L126,733 L126,182 Q126,97 152,63 Q178,29 259,40 L261,-1 Q156,-16 116.5,28 Q77,72 77,181 M276,697 Q274,686 271,677 L251,613 L219,613 L237,674 Q214,679 214,703 Q214,715 223,723 Q232,731 245,731 Q271,731 276,709 Q278,702 276,697"/> 
            <glyph glyph-name="Ŀ" unicode="&#x13F;" horiz-adv-x="498" d=" M150,700 L150,46 L498,46 L498,0 L99,0 L99,700 M344,345 Q331,345 321.5,354 Q312,363 312,377 Q312,392 321.5,401.5 Q331,411 344,411 Q359,411 368.5,401.5 Q378,392 378,377 Q378,363 368,354 Q358,345 344,345"/> 
            <glyph glyph-name="ŀ" unicode="&#x140;" horiz-adv-x="287" d=" M77,733 L126,733 L126,182 Q126,97 152,63 Q178,29 259,40 L261,-1 Q156,-16 116.5,28 Q77,72 77,181 M268,343 Q242,343 232.5,352 Q223,361 223,375 Q223,390 232.5,399.5 Q242,409 255,409 Q268,409 277.5,399.5 Q287,390 287,375 Q287,361 268,343"/> 
            <glyph glyph-name="Ł" unicode="&#x141;" horiz-adv-x="495" d=" M151,700 L151,358 L267,394 L267,350 L151,314 L151,46 L495,46 L495,0 L100,0 L100,300 L21,277 L21,320 L100,343 L100,700"/> 
            <glyph glyph-name="ł" unicode="&#x142;" horiz-adv-x="270" d=" M86,731 L135,731 L135,360 L237,392 L237,349 L135,317 L135,170 Q135,83 160,50 Q185,17 268,28 L270,-12 Q210,-21 173,-11 Q136,-1 117,31 Q98,63 92,103.5 Q86,144 86,211 L86,303 L5,279 L5,322 L86,346"/> 
            <glyph glyph-name="Ń" unicode="&#x143;" horiz-adv-x="644" d=" M627,0 L145,591 L150,352 L150,0 L99,0 L99,701 L119,701 L598,112 L593,366 L593,701 L644,701 L644,0 M330,771 L330,774 L416,905 L458,885 L458,880 L374,771"/> 
            <glyph glyph-name="ń" unicode="&#x144;" horiz-adv-x="512" d=" M512,0 L464,0 L464,293 Q464,364 421,406 Q378,448 307,448 Q235,448 189,403.5 Q143,359 143,285 L143,0 L95,0 L95,357 Q95,416 84,432 Q73,448 34,442 L33,484 Q91,493 115.5,477 Q140,461 140,406 Q201,495 318,493 Q408,493 460,437.5 Q512,382 512,293 M264,603 L264,606 L344,727 L383,708 L383,703 L305,603"/> 
            <glyph glyph-name="Ņ" unicode="&#x145;" horiz-adv-x="644" d=" M412,-139 Q410,-143 409,-150 Q408,-157 406,-161 L379,-247 L343,-247 L367,-165 Q341,-160 341,-133 Q341,-118 351,-109 Q361,-100 377,-100 Q389,-100 399.5,-107 Q410,-114 412,-126 M627,0 L145,591 L150,352 L150,0 L99,0 L99,701 L119,701 L598,112 L593,366 L593,701 L644,701 L644,0"/> 
            <glyph glyph-name="ņ" unicode="&#x146;" horiz-adv-x="512" d=" M343,-139 Q342,-143 340.5,-150 Q339,-157 337,-161 L310,-247 L274,-247 L298,-165 Q272,-160 272,-133 Q272,-118 282,-109 Q292,-100 308,-100 Q320,-100 330.5,-107 Q341,-114 343,-126 M512,0 L464,0 L464,293 Q464,364 421,406 Q378,448 307,448 Q235,448 189,403.5 Q143,359 143,285 L143,0 L95,0 L95,357 Q95,416 84,432 Q73,448 34,442 L33,484 Q91,493 115.5,477 Q140,461 140,406 Q201,495 318,493 Q408,493 460,437.5 Q512,382 512,293"/> 
            <glyph glyph-name="Ň" unicode="&#x147;" horiz-adv-x="644" d=" M627,0 L145,591 L150,352 L150,0 L99,0 L99,701 L119,701 L598,112 L593,366 L593,701 L644,701 L644,0 M215,892 L266,892 L374,794 L484,892 L536,892 L536,886 L399,762 L351,762 L215,888"/> 
            <glyph glyph-name="ň" unicode="&#x148;" horiz-adv-x="512" d=" M512,0 L464,0 L464,293 Q464,364 421,406 Q378,448 307,448 Q235,448 189,403.5 Q143,359 143,285 L143,0 L95,0 L95,357 Q95,416 84,432 Q73,448 34,442 L33,484 Q91,493 115.5,477 Q140,461 140,406 Q201,495 318,493 Q408,493 460,437.5 Q512,382 512,293 M131,715 L180,715 L285,620 L391,715 L442,715 L442,710 L309,589 L263,589 L131,712"/> 
            <glyph glyph-name="ŉ" unicode="&#x149;" horiz-adv-x="512" d=" M512,0 L464,0 L464,293 Q464,364 421,406 Q378,448 307,448 Q235,448 189,403.5 Q143,359 143,285 L143,0 L95,0 L95,357 Q95,416 84,432 Q73,448 34,442 L33,484 Q91,493 115.5,477 Q140,461 140,406 Q201,495 318,493 Q408,493 460,437.5 Q512,382 512,293"/> 
            <glyph glyph-name="Ŋ" unicode="&#x14A;" horiz-adv-x="644" d=" M465,-185 L467,-147 Q489,-149 506.5,-151 Q524,-153 538,-147.5 Q552,-142 561.5,-136.5 Q571,-131 578,-119 Q585,-107 589.5,-95.5 Q594,-84 596,-66.5 Q598,-49 599,-33 Q600,-17 600,5 L600,29 L150,601 L150,0 L99,0 L99,701 L119,701 L593,105 L593,701 L644,701 L644,4 Q644,-108 605.5,-156 Q567,-204 465,-185"/> 
            <glyph glyph-name="ŋ" unicode="&#x14B;" horiz-adv-x="511" d=" M511,290 L511,-5 Q511,-117 471,-165.5 Q431,-214 328,-197 Q330,-171 330,-159 Q356,-166 375.5,-163 Q395,-160 409.5,-156.5 Q424,-153 433.5,-140 Q443,-127 449,-115 Q455,-103 458.5,-83.5 Q462,-64 463,-46.5 Q464,-29 464,-5 L464,290 Q464,362 420,406 Q376,450 306,450 Q234,450 188,404.5 Q142,359 142,285 L142,0 L94,0 L94,348 Q94,421 90,433 Q81,457 38,453 Q36,452 33,452 L31,484 Q85,493 113,476.5 Q141,460 141,411 L141,395 Q164,444 210.5,468 Q257,492 317,491 Q406,491 458.5,435 Q511,379 511,290"/> 
            <glyph glyph-name="Ō" unicode="&#x14C;" horiz-adv-x="762" d=" M762,350 Q762,191 663,90 Q564,-11 407,-11 Q253,-11 153.5,89 Q54,189 54,350 Q54,510 154.5,610.5 Q255,711 407,711 Q561,711 661.5,610.5 Q762,510 762,350 M105,488 Q105,212 190.5,124 Q276,36 407,36 Q539,36 625,124 Q711,212 711,350 Q711,488 625.5,575.5 Q540,663 408,663 Q275,663 105,488 M267,807 L267,848 L553,848 L553,807"/> 
            <glyph glyph-name="ō" unicode="&#x14D;" horiz-adv-x="555" d=" M555,242 Q555,182 533.5,133.5 Q512,85 476,55 Q440,25 394.5,9 Q349,-7 302,-7 Q255,-7 209.5,9 Q164,25 128,55 Q92,85 70.5,133.5 Q49,182 49,242 Q49,322 86.5,380 Q124,438 180,464.5 Q236,491 302,491 Q368,491 424,464.5 Q480,438 517.5,380 Q555,322 555,242 M97,242 Q97,186 119.5,141.5 Q142,97 178.5,74.5 Q215,52 258.5,41 Q302,30 345.5,40.5 Q389,51 425.5,74 Q462,97 484.5,141 Q507,185 507,242 Q507,308 476.5,356 Q446,404 400.5,426 Q355,448 302,448 Q249,448 203.5,426 Q158,404 127.5,356 Q97,308 97,242 M162,630 L162,671 L448,671 L448,630"/> 
            <glyph glyph-name="Ŏ" unicode="&#x14E;" horiz-adv-x="762" d=" M762,350 Q762,191 663,90 Q564,-11 407,-11 Q253,-11 153.5,89 Q54,189 54,350 Q54,510 154.5,610.5 Q255,711 407,711 Q561,711 661.5,610.5 Q762,510 762,350 M105,488 Q105,212 190.5,124 Q276,36 407,36 Q539,36 625,124 Q711,212 711,350 Q711,488 625.5,575.5 Q540,663 408,663 Q275,663 105,488 M245,909 L288,909 Q297,869 332,846.5 Q367,824 406,824 Q445,824 480,846.5 Q515,869 524,909 L568,909 Q561,861 528,829 Q495,797 451,789.5 Q407,782 362.5,790 Q318,798 285,830 Q252,862 245,909"/> 
            <glyph glyph-name="ŏ" unicode="&#x14F;" horiz-adv-x="555" d=" M555,242 Q555,182 533.5,133.5 Q512,85 476,55 Q440,25 394.5,9 Q349,-7 302,-7 Q255,-7 209.5,9 Q164,25 128,55 Q92,85 70.5,133.5 Q49,182 49,242 Q49,322 86.5,380 Q124,438 180,464.5 Q236,491 302,491 Q368,491 424,464.5 Q480,438 517.5,380 Q555,322 555,242 M97,242 Q97,186 119.5,141.5 Q142,97 178.5,74.5 Q215,52 258.5,41 Q302,30 345.5,40.5 Q389,51 425.5,74 Q462,97 484.5,141 Q507,185 507,242 Q507,308 476.5,356 Q446,404 400.5,426 Q355,448 302,448 Q249,448 203.5,426 Q158,404 127.5,356 Q97,308 97,242 M149,709 L190,709 Q197,672 230,651 Q263,630 301,630 Q339,630 372,651 Q405,672 412,709 L454,709 Q445,653 399.5,622 Q354,591 301.5,591 Q249,591 203.5,622 Q158,653 149,709"/> 
            <glyph glyph-name="Ő" unicode="&#x150;" horiz-adv-x="762" d=" M338,774 L297,774 L297,779 L352,889 L398,877 L398,872 M506,774 L464,774 L464,779 L521,886 L565,871 L565,866 M762,350 Q762,191 663,90 Q564,-11 407,-11 Q253,-11 153.5,89 Q54,189 54,350 Q54,510 154.5,610.5 Q255,711 407,711 Q561,711 661.5,610.5 Q762,510 762,350 M105,488 Q105,212 190.5,124 Q276,36 407,36 Q539,36 625,124 Q711,212 711,350 Q711,488 625.5,575.5 Q540,663 408,663 Q275,663 105,488"/> 
            <glyph glyph-name="ő" unicode="&#x151;" horiz-adv-x="555" d=" M237,594 L196,594 L196,599 L251,709 L297,697 L297,692 M405,594 L363,594 L363,599 L420,706 L464,691 L464,686 M555,242 Q555,182 533.5,133.5 Q512,85 476,55 Q440,25 394.5,9 Q349,-7 302,-7 Q255,-7 209.5,9 Q164,25 128,55 Q92,85 70.5,133.5 Q49,182 49,242 Q49,322 86.5,380 Q124,438 180,464.5 Q236,491 302,491 Q368,491 424,464.5 Q480,438 517.5,380 Q555,322 555,242 M97,242 Q97,186 119.5,141.5 Q142,97 178.5,74.5 Q215,52 258.5,41 Q302,30 345.5,40.5 Q389,51 425.5,74 Q462,97 484.5,141 Q507,185 507,242 Q507,308 476.5,356 Q446,404 400.5,426 Q355,448 302,448 Q249,448 203.5,426 Q158,404 127.5,356 Q97,308 97,242"/> 
            </font>
</defs>
</svg>
